<?xml version="1.0" encoding="UTF-8"?>
<!DOCTYPE svg PUBLIC "-//W3C//DTD SVG 1.1//EN" "http://www.w3.org/Graphics/SVG/1.1/DTD/svg11.dtd">
<!-- Creator: CorelDRAW 2020 (64 Bit) -->
<svg xmlns="http://www.w3.org/2000/svg" xml:space="preserve" width="210mm" height="297mm" version="1.1" style="shape-rendering:geometricPrecision; text-rendering:geometricPrecision; image-rendering:optimizeQuality; fill-rule:evenodd; clip-rule:evenodd"
viewBox="0 0 21000 29700"
 xmlns:xlink="http://www.w3.org/1999/xlink"
 xmlns:xodm="http://www.corel.com/coreldraw/odm/2003">
 <defs>
  <style type="text/css">
   <![CDATA[
    .fil1 {fill:#1A1937}
    .fil0 {fill:#F5AD00}
    .fil2 {fill:white}
   ]]>
  </style>
 </defs>
 <g id="Camada_x0020_1">
  <metadata id="CorelCorpID_0Corel-Layer"/>
  <g id="_2219088315328">
   <path class="fil0" d="M10492.87 22350.52c4130.9,0 7500.05,-3369.15 7500.05,-7500.05 0,-4130.78 -3369.15,-7499.94 -7500.05,-7499.94 -4130.91,0 -7500.06,3369.16 -7500.06,7499.94 0,4130.9 3369.15,7500.05 7500.06,7500.05z"/>
   <path class="fil1" d="M11613.21 18569.99c-42.05,-216.26 132.41,-202.63 234.02,-150.44 -7.65,35.95 -14.97,24.06 -28.31,61.01 -52.19,-14.21 -124.63,-57.47 -141.04,26.97 25.93,47.33 51.03,28.01 92.51,61.59l-157.18 0.87zm1771.15 -1993.68c-1.75,-2.08 -4.37,-4.41 -5.7,-5.74l-42.1 -30.79c-13.92,-11.14 -20.94,-17.45 -28.59,-41.93 -12.42,-40.31 -3.07,-87.36 17.17,-112.58 59.22,-74.06 155.13,-23.48 219.34,-31.67 -36.82,70.07 -96.04,142.63 -145.45,205.67 -8.19,10.56 -7.78,9.85 -14.67,17.04zm-5171.34 1993.68c-42.56,-212.15 130.45,-203.51 233.8,-150.44 -7.48,35.37 -14.96,24.81 -28.42,61.01 -50.75,-13.63 -124.76,-57.93 -140.88,26.97 25.8,47.5 50.86,28.01 92.34,61.42l-156.84 1.04zm0 0c-42.56,-212.15 130.45,-203.51 233.8,-150.44 -7.48,35.37 -14.96,24.81 -28.42,61.01 -50.75,-13.63 -124.76,-57.93 -140.88,26.97 25.8,47.5 50.86,28.01 92.34,61.42l3243.35 1.04c-42.05,-216.26 132.41,-202.63 234.02,-150.44 -7.65,35.95 -14.97,24.06 -28.31,61.01 -52.19,-14.21 -124.63,-57.47 -141.04,26.97 25.93,47.33 51.03,28.01 92.51,61.59l155.38 -4.7c52.65,-79.62 126.25,-166.56 187.67,-249.68l1092.05 -1490.66c34.62,-47.5 58.22,-78.47 91.8,-127.59 28.72,-42.05 58.47,-74.76 87.07,-120.18 -1.75,-2.08 -4.37,-4.41 -5.7,-5.74l-42.1 -30.79c-13.92,-11.14 -20.94,-17.45 -28.59,-41.93 -12.42,-40.31 -3.07,-87.36 17.17,-112.58 59.22,-74.06 155.13,-23.48 219.34,-31.67 26.68,-12.76 124.3,-163.49 153.93,-203.34 37.65,-50.57 38.85,-53.36 38.27,-135.48l0 -2353.61c0,-963.47 -13.21,-1935.04 0.29,-2897.81 -62.92,-20.94 -6125.62,-15.95 -6171.67,0.46l0.13 7798.23c76.67,23.77 524.41,2.08 647.59,7.94zm-349.09 -7476.04l-0.45 7135.31 3825.12 0.29 0.42 -2263.89 1745.91 -1.74 3.99 -4869.97 -5574.99 0zm4066.83 5141.17l1273.86 0.33c-6.57,19.49 -1178.86,1722.15 -1275.03,1829.33l1.17 -1829.66z"/>
   <path class="fil2" d="M9944.72 16652.07c-33.58,18.33 -40.93,21.28 -56.48,50.62 1.63,2.16 4.28,2.61 5.16,6.15 10.55,41.93 241.74,116.69 276.19,-39.44 40.02,-181.94 -205.67,-111.58 -180.78,-240.58 50.75,-18.78 85.94,-14.09 128.87,9.81 20.99,-21.57 22.15,-28.01 37.11,-54.98 -139.88,-117.86 -337.94,40.77 -222.25,149.85 35.62,33.71 143.21,50.29 156.72,93.97 25.06,81.08 -91.93,83.28 -144.54,24.6zm-1604.33 399.66c43.55,531.89 511.53,976.27 1104.23,929.18 534.1,-42.51 986.53,-508.29 936.25,-1099.07 -44.14,-517.22 -503.76,-971.86 -1106.43,-924.66 -529.69,41.48 -982.13,506.22 -934.05,1094.55zm1604.33 -399.66c52.61,58.68 169.6,56.48 144.54,-24.6 -13.51,-43.68 -121.1,-60.26 -156.72,-93.97 -115.69,-109.08 82.37,-267.71 222.25,-149.85 -14.96,26.97 -16.12,33.41 -37.11,54.98 -42.93,-23.9 -78.12,-28.59 -128.87,-9.81 -24.89,129 220.8,58.64 180.78,240.58 -34.45,156.13 -265.64,81.37 -276.19,39.44 -0.88,-3.54 -3.53,-3.99 -5.16,-6.15 15.55,-29.34 22.9,-32.29 56.48,-50.62zm-643.31 -401.99l138.51 1.5 2.95 171.96c49.41,31.5 157.59,36.2 231.93,89.73l-49.53 91.3c-1.5,1.79 -3.53,4.4 -4.86,5.9l-10.85 11.43c-0.87,-1.79 -3.66,3.78 -5.69,5.57 -81.54,-38.28 -113.95,-66.58 -229.61,-64.96 -81.78,1.33 -161.87,31.96 -184.72,95.75 -88.56,247.6 538.5,217.26 510.78,592.28 -11.88,159.95 -135.19,240.28 -275.77,279.85l-1.92 178.28 -144.99 -2.33 -3.37 -165.98c-42.22,-20.24 -102.48,-21.23 -150.39,-39.15 -48.71,-18.32 -79.46,-40.31 -120.1,-59.34 8.06,-40.35 37.52,-88.43 61.58,-119.94 77.26,29.47 98.54,64.79 211.28,76.97 90.72,9.68 175.46,-4.24 227.95,-57.31 61.87,-62.33 52.48,-153.8 0.29,-210.99 -40.44,-44.42 -108.05,-73.14 -175.04,-103.81 -120.06,-55.1 -282.8,-143.5 -298.64,-283.79 -20.07,-176.54 122.72,-278.73 264.64,-308.03l5.57 -184.89z"/>
   <path class="fil1" d="M8337.61 13930.51c6.73,80.78 87.81,146.45 152.02,176.78 81.66,38.86 166.27,48.08 266.55,48.08l1944.56 -0.12c637.61,0 1310.22,7.19 1944.89,0.12 487.3,-5.56 532.89,-481.44 -40.19,-480.98l-1944.72 0c-631.26,0 -1318.25,-9.1 -1944.73,0 -169.6,2.49 -392.76,85.77 -378.38,256.12z"/>
   <path class="fil1" d="M13016.24 15516.05c61.13,-174.75 -178.86,-279.02 -340.69,-288.37 -203.96,-12.05 -441.01,-1.49 -648.59,-1.49l-3230.93 0c-624.65,-0.88 -565.89,454.18 -110.09,481.03 203.8,11.88 441.14,1.16 648.59,1.16l3230.89 0c185.18,0.29 393.93,-29.76 450.82,-192.33z"/>
   <path class="fil1" d="M13020.19 13182.68c42.39,-169.35 -196.86,-267.59 -354.9,-273.45 -210.7,-7.61 -435.86,-0.42 -648.18,-0.42l-3240.99 0c-98.53,-0.16 -187.21,6.15 -271.82,42.23 -298.18,127.08 -174.17,424.84 191.62,438.76 210.53,7.94 436.43,0.46 648.59,0.46l3240.86 0.12c193.24,0.34 394.67,-47.04 434.82,-207.7z"/>
   <path class="fil1" d="M12232.51 14678.04c-20.41,-29.46 -46.05,-55.85 -28.31,-101.31 15.55,-39.44 64.96,-53.36 107.89,-36.08 61.42,24.65 82.99,159.96 -79.58,137.39zm-3400.41 0c-20.24,-29.34 -46.17,-56.02 -28.3,-101.31 15.42,-39.57 65.12,-53.36 108.05,-36.08 61.3,24.52 82.87,160.13 -79.75,137.39zm4184.72 77.13c-77.25,-13.5 -54.98,-2.36 -99.82,-49.41 -25.52,-26.55 -43.39,-50.86 -75.34,-68.19l-0.34 109.83 -78.12 2.33 -0.3 -273.57c79.46,11.59 136.65,42.8 191.34,82.41 56.14,40.6 78.71,105.09 62.58,196.6zm-4552.54 -223.45c23.31,-28.59 52.48,-36.07 89.14,-46.75 33.7,-9.98 76.84,-20.99 113.61,-24.48 125.51,-12.34 636.29,1.62 807.05,-2.66 354.53,-8.77 721.19,-0.12 1077.01,-0.12 358.89,0 718.94,-3.08 1076.96,2.9l1071.69 8.65 -31.67 2.66 54.36 47.21 -34.87 40.77c-54.69,-5.28 -6.61,-3.25 -53.82,-20.41 -108.75,-39.56 -147.78,133.57 -35.2,143.83 42.97,3.82 58.06,-21.86 85.2,-32.12l49.53 46.92c-145.7,135.31 -314.59,4.86 -272.36,-134.15 16.58,-54.36 49.24,-66.24 86.35,-95.58l-205.25 0.29c37.53,34.61 47.92,19.49 74.18,69.94 17.74,33.7 23.15,71.56 12.01,112 -17.87,65.41 -76.22,106.72 -160.66,103.06 -165.69,-7.32 -199.85,-205.38 -52.95,-283.84l-107.46 -2.04 -7.32 64.21 -87.39 0c0,119.19 -31.05,142.21 80.49,158.33l9.23 54.4c-53.36,19.78 -122.1,6.61 -148.07,-33.41 -28.72,-44.71 -13.76,-121.68 -21.98,-178.16l-75.81 -0.58 -0.12 -64.33 -170.34 -0.17c17.28,21.41 4.07,11.72 35.44,27.72 24.94,12.47 206.42,62.17 129.17,195.28 -55.69,95.88 -216.69,70.82 -269.88,-2.03 20.36,-18.79 25.77,-29.63 50.58,-45.34 30.92,35.2 110.08,65.7 151.43,6.9 27.85,-69.78 -129.33,-84.74 -165.98,-140.3 -33.24,-50.58 6.61,-40.77 -59.8,-42.64l0 280.43 -76.8 -0.71 0 -279.72 -1825.25 2.04c-21.57,4.82 -110.12,93.54 -144.87,113.9 26.97,53.36 104.4,103.94 148.65,160.08 -142.79,32.25 -133.98,-64.78 -217.84,-107.01l-0.42 109.97 -76.38 2.03 0 -281.18 -99.11 2.95 57.01 48.5 -34.57 40.94c-53.4,-5.16 -52.07,-38.15 -103.69,-22.9 -33.24,9.85 -55.56,36.36 -51.86,81.08 9.93,123.01 151.14,33.41 151.56,33.28l49.58 46.92c-143.83,133.86 -314.76,5.99 -272.41,-134.44 16.41,-53.81 49.12,-65.99 86.48,-95.45l-205.21 0.29c37.81,35.2 47.5,18.91 74.18,69.94 48.95,93.83 -4.12,221.5 -148.7,215.06 -163.73,-7.32 -202.3,-205.55 -53.07,-283.96l-107.42 -1.33 -7.19 63.33 -87.69 0.75c0.46,119.77 -30.92,141.46 80.62,157.87l9.4 54.4c-53.36,19.66 -122.14,6.74 -148.07,-33.41 -28.01,-43.26 -14.96,-122.26 -21.57,-177.99l-67.86 -1.62zm367.82 146.32c-20.24,-29.34 -46.17,-56.02 -28.3,-101.31 15.42,-39.57 65.12,-53.36 108.05,-36.08 61.3,24.52 82.87,160.13 -79.75,137.39zm3400.41 0c-20.41,-29.46 -46.05,-55.85 -28.31,-101.31 15.55,-39.44 64.96,-53.36 107.89,-36.08 61.42,24.65 82.99,159.96 -79.58,137.39zm-3768.23 -146.32c-28.31,2.66 -143.67,77.55 -121.1,201.89 48.54,266.38 594.19,209.49 801.93,209.07l3390.43 0c208.16,-0.46 373.52,-4.86 481.28,-187.51 -77.25,-13.5 -54.98,-2.36 -99.82,-49.41 -25.52,-26.55 -43.39,-50.86 -75.34,-68.19l-0.34 109.83 -78.12 2.33 -0.3 -273.57 -63.16 -6.9 -31.67 2.66 54.36 47.21 -34.87 40.77c-54.69,-5.28 -6.61,-3.25 -53.82,-20.41 -108.75,-39.56 -147.78,133.57 -35.2,143.83 42.97,3.82 58.06,-21.86 85.2,-32.12l49.53 46.92c-145.7,135.31 -314.59,4.86 -272.36,-134.15 16.58,-54.36 49.24,-66.24 86.35,-95.58l-205.25 0.29c37.53,34.61 47.92,19.49 74.18,69.94 17.74,33.7 23.15,71.56 12.01,112 -17.87,65.41 -76.22,106.72 -160.66,103.06 -165.69,-7.32 -199.85,-205.38 -52.95,-283.84l-107.46 -2.04 -7.32 64.21 -87.39 0c0,119.19 -31.05,142.21 80.49,158.33l9.23 54.4c-53.36,19.78 -122.1,6.61 -148.07,-33.41 -28.72,-44.71 -13.76,-121.68 -21.98,-178.16l-75.81 -0.58 -0.12 -64.33 -170.34 -0.17c17.28,21.41 4.07,11.72 35.44,27.72 24.94,12.47 206.42,62.17 129.17,195.28 -55.69,95.88 -216.69,70.82 -269.88,-2.03 20.36,-18.79 25.77,-29.63 50.58,-45.34 30.92,35.2 110.08,65.7 151.43,6.9 27.85,-69.78 -129.33,-84.74 -165.98,-140.3 -33.24,-50.58 6.61,-40.77 -59.8,-42.64l0 280.43 -76.8 -0.71 0 -279.72 -1825.25 2.04c-21.57,4.82 -110.12,93.54 -144.87,113.9 26.97,53.36 104.4,103.94 148.65,160.08 -142.79,32.25 -133.98,-64.78 -217.84,-107.01l-0.42 109.97 -76.38 2.03 0 -281.18 -99.11 2.95 57.01 48.5 -34.57 40.94c-53.4,-5.16 -52.07,-38.15 -103.69,-22.9 -33.24,9.85 -55.56,36.36 -51.86,81.08 9.93,123.01 151.14,33.41 151.56,33.28l49.58 46.92c-143.83,133.86 -314.76,5.99 -272.41,-134.44 16.41,-53.81 49.12,-65.99 86.48,-95.45l-205.21 0.29c37.81,35.2 47.5,18.91 74.18,69.94 48.95,93.83 -4.12,221.5 -148.7,215.06 -163.73,-7.32 -202.3,-205.55 -53.07,-283.96l-107.42 -1.33 -7.19 63.33 -87.69 0.75c0.46,119.77 -30.92,141.46 80.62,157.87l9.4 54.4c-53.36,19.66 -122.14,6.74 -148.07,-33.41 -28.01,-43.26 -14.96,-122.26 -21.57,-177.99l-67.86 -1.62z"/>
   <path class="fil2" d="M8832.18 11891.9l-178.19 0 0 -119.19c0,-34.66 -1.96,-56.51 -5.66,-65.12 -3.94,-8.6 -12.3,-12.8 -25.31,-12.8 -14.75,0 -24.1,5.16 -28.05,15.5 -3.9,10.56 -5.9,33.17 -5.9,67.83l0 318.29c0,33.45 2,55.31 5.9,65.41 3.95,10.05 12.8,15.21 26.81,15.21 13.26,0 21.86,-5.16 26.05,-15.21 4.2,-10.1 6.16,-34.2 6.16,-71.77l0 -85.82 178.19 0 0 26.56c0,71.02 -4.9,121.18 -15,150.68 -10.06,29.72 -32.21,55.52 -66.37,77.92 -34.41,22.36 -76.67,33.67 -127.08,33.67 -52.11,0 -95.12,-9.6 -129.03,-28.51 -33.92,-18.95 -56.27,-44.97 -67.33,-78.42 -11.05,-33.41 -16.5,-83.82 -16.5,-150.9l0 -200.35c0,-49.37 1.75,-86.52 5.2,-111.33 3.16,-24.56 13.26,-48.41 30.21,-71.27 16.71,-22.86 40.06,-40.81 69.82,-53.82 29.71,-13.05 64.12,-19.7 102.73,-19.7 52.36,0 95.87,10.1 130.03,30.51 34.16,20.4 56.52,45.71 67.32,75.92 10.6,30.26 16,77.43 16,141.59l0 65.12zm471.18 102.52c0,68.82 -1.7,117.49 -4.9,146.24 -3.2,28.76 -13.55,54.82 -30.5,78.67 -16.96,23.82 -40.06,42.02 -69.07,54.57 -29.26,12.76 -63.17,19.16 -101.74,19.16 -36.65,0 -69.56,-6.15 -98.82,-18.21 -29.26,-12.05 -52.86,-29.96 -70.52,-54.06 -17.95,-23.86 -28.55,-49.91 -31.71,-78.17 -3.45,-28.26 -5.2,-77.67 -5.2,-148.2l0 -117.23c0,-68.82 1.75,-117.53 4.95,-146.28 3.2,-28.76 13.51,-54.78 30.46,-78.63 16.96,-23.6 40.06,-41.81 69.32,-54.56 29.01,-12.56 62.92,-18.96 101.52,-18.96 36.62,0 69.53,5.91 98.79,17.96 29.25,12.05 52.61,30 70.56,53.81 17.71,24.11 28.26,50.16 31.71,78.42 3.45,28.26 5.15,77.67 5.15,148.24l0 117.23zm-178.2 -225.16c0,-31.95 -1.7,-52.36 -5.15,-61.21 -3.7,-8.81 -11.05,-13.26 -22.15,-13.26 -9.06,0 -16.21,3.45 -21.11,10.56 -5.15,7.15 -7.65,28.51 -7.65,63.91l0 320.04c0,39.81 1.75,64.37 4.95,73.72 3.2,9.35 10.8,14.01 22.61,14.01 12.05,0 19.9,-5.41 23.35,-16.21 3.45,-10.56 5.15,-36.11 5.15,-76.67l0 -314.89zm642.73 -176.24l0 685.53 -156.29 0 -92.68 -311.68 0 311.68 -148.94 0 0 -685.53 148.94 0 100.03 308.73 0 -308.73 148.94 0z"/>
   <polygon class="fil2" points="10198.72,11593.02 10198.72,11730.2 10093.04,11730.2 10093.04,12278.55 9914.84,12278.55 9914.84,11730.2 9809.37,11730.2 9809.37,11593.02 "/>
   <path class="fil2" d="M10513.52 11593.02l101.98 685.53 -182.35 0 -8.85 -123.13 -64.17 0 -10.56 123.13 -184.59 0 90.67 -685.53 257.87 0zm-94.42 440.72c-9.06,-77.42 -17.91,-173.3 -27.01,-287.33 -18.2,131.03 -29.51,226.61 -33.91,287.33l60.92 0zm379.79 -440.72l133.2 0c86.27,0 144.53,3.95 174.75,11.8 30.25,8.15 53.36,21.15 69.31,39.11 15.75,17.95 25.56,38.11 29.51,60.21 3.95,22.36 5.9,65.87 5.9,130.74l0 239.92c0,61.67 -2.95,102.73 -8.6,123.38 -5.65,20.9 -15.71,37.11 -30.21,48.66 -14.51,11.81 -32.21,19.91 -53.36,24.56 -21.36,4.7 -53.32,7.15 -95.88,7.15l-224.62 0 0 -685.53zm178.2 117.27l0 451.03c25.81,0 41.52,-5.15 47.42,-15.5 5.9,-10.31 8.85,-38.32 8.85,-84.07l0 -266.18c0,-31.21 -0.99,-51.12 -2.95,-59.97 -1.95,-8.6 -6.4,-15 -13.5,-19.16 -7.15,-4.19 -20.41,-6.15 -39.82,-6.15zm301.09 -117.27l297.13 0 0 137.18 -118.93 0 0 130.03 111.33 0 0 130.49 -111.33 0 0 150.69 130.74 0 0 137.14 -308.94 0 0 -685.53zm691.43 0l0 548.39 108.38 0 0 137.14 -286.58 0 0 -685.53 178.2 0zm556.71 0l0 458.17c0,51.86 -1.75,88.48 -4.95,109.38 -3.41,21.15 -13.5,42.76 -29.96,64.87 -16.71,22.15 -38.61,38.86 -65.87,50.41 -27.3,11.55 -59.51,17.21 -96.62,17.21 -40.77,0 -76.92,-6.9 -108.13,-20.41 -31.46,-13.51 -54.82,-31.21 -70.32,-53.07 -15.46,-21.65 -24.81,-44.51 -27.51,-68.86 -2.95,-24.06 -4.41,-74.72 -4.41,-152.14l0 -405.56 178.41 0 0 513.98c0,29.97 1.75,49.17 4.95,57.52 3.2,8.35 9.55,12.51 19.4,12.51 11.31,0 18.7,-4.66 21.86,-13.76 3.2,-9.1 4.95,-30.96 4.95,-65.12l0 -505.13 178.2 0zm366.95 0l0 137.18 -132.98 411.21 132.98 0 0 137.14 -328.39 0 0 -99.53 137.14 -448.82 -121.14 0 0 -137.18 312.39 0z"/>
   <path class="fil1" d="M6758.5 10805.75l0 0c67.74,-71.85 181.82,-75.22 253.63,-7.64l7523.83 7088.09c71.85,67.62 75.34,181.82 7.6,253.63 -67.7,71.98 -181.77,75.38 -253.75,7.65l-7523.66 -7088.1c-71.85,-67.62 -75.34,-181.82 -7.65,-253.63z"/>
   <path class="fil1" d="M14543.73 10805.75l0 0c-67.74,-71.85 -181.94,-75.22 -253.79,-7.64l-7523.79 7088.09c-71.85,67.62 -75.22,181.82 -7.48,253.63 67.74,71.98 181.77,75.38 253.63,7.65l7523.82 -7088.1c71.81,-67.62 75.35,-181.82 7.61,-253.63z"/>
  </g>
 </g>
</svg>
