<?xml version="1.0" encoding="UTF-8"?>
<!DOCTYPE svg PUBLIC "-//W3C//DTD SVG 1.1//EN" "http://www.w3.org/Graphics/SVG/1.1/DTD/svg11.dtd">
<!-- Creator: CorelDRAW 2020 (64 Bit) -->
<svg xmlns="http://www.w3.org/2000/svg" xml:space="preserve" width="210mm" height="297mm" version="1.1" style="shape-rendering:geometricPrecision; text-rendering:geometricPrecision; image-rendering:optimizeQuality; fill-rule:evenodd; clip-rule:evenodd"
viewBox="0 0 21000 29700"
 xmlns:xlink="http://www.w3.org/1999/xlink"
 xmlns:xodm="http://www.corel.com/coreldraw/odm/2003">
 <defs>
  <style type="text/css">
   <![CDATA[
    .fil2 {fill:#1A1937}
    .fil0 {fill:#F5AD00}
    .fil1 {fill:white}
   ]]>
  </style>
 </defs>
 <g id="Camada_x0020_1">
  <metadata id="CorelCorpID_0Corel-Layer"/>
  <g id="_2219085838384">
   <path class="fil0" d="M10492.87 22350.44c4130.87,0 7500,-3369.09 7500,-7500 0,-4130.7 -3369.13,-7499.82 -7500,-7499.82 -4130.91,0 -7499.99,3369.12 -7499.99,7499.82 0,4130.91 3369.08,7500 7499.99,7500z"/>
   <path class="fil1" d="M10744.13 10496.58l0 0c157.17,0 285.58,128.45 285.58,285.62l0 956.44c0,157 -128.41,285.41 -285.58,285.41 -157.17,0 -285.58,-128.41 -285.58,-285.41l0 -956.44c0,-157.17 128.41,-285.62 285.58,-285.62z"/>
   <path class="fil1" d="M13491.81 11622.24l0 0c109.05,113.16 105.68,294.8 -7.48,403.73l-688.77 663.66c-113.16,108.97 -294.81,105.56 -403.73,-7.6l-0.16 0c-108.93,-113.16 -105.56,-294.81 7.64,-403.77l688.73 -663.5c113.2,-109.09 294.68,-105.72 403.77,7.48z"/>
   <path class="fil1" d="M14615.97 14247.32l0 0c0,157.17 -128.45,285.58 -285.58,285.58l-956.48 0c-157,0 -285.41,-128.41 -285.41,-285.58 0,-157.17 128.41,-285.58 285.41,-285.58l956.48 0c157.13,0 285.58,128.41 285.58,285.58z"/>
   <path class="fil1" d="M8439.53 14373.53l0 0.17c0,157 -128.45,285.46 -285.62,285.46l-956.44 0c-157,0 -285.41,-128.46 -285.41,-285.46l0 -0.17c0,-157.13 128.41,-285.58 285.41,-285.58l956.44 0c157.17,0 285.62,128.45 285.62,285.58z"/>
   <path class="fil1" d="M7982.11 11626.19l0 0c-109.08,113.16 -105.72,294.8 7.48,403.72l688.73 663.71c113.2,108.93 294.85,105.56 403.77,-7.64l0.13 0c108.92,-113.16 105.55,-294.81 -7.61,-403.73l-688.77 -663.54c-113.16,-109.09 -294.81,-105.68 -403.73,7.48z"/>
   <path class="fil2" d="M8677.03 13932.69l0 1669.27c-831.43,0 -1733.31,810.58 -1733.31,1798.1 0,1143.36 777.29,2002.18 1666.74,2002.18l465.61 0c552.83,0 1359.33,-590.52 1467.38,-1001.03 810.57,0 2265.32,-64.49 2265.32,-1065.52l0 -3534.48c0,-1119.18 -3192.29,-1221.08 -3953.04,-418.69 -128.87,136.93 -178.7,300.66 -178.7,550.17zm399.04 -131.48c195.44,-724.68 2884.73,-735.36 3333.8,-67.16 -70.69,268.46 -303.5,370.48 -665.17,469.72 -764.82,214.64 -2277.91,177.12 -2668.63,-402.56zm-66.54 534.09c116.4,238.79 -4.11,201.26 224.45,375.72 569.54,432.07 1962,437.47 2681.11,195.9 428.2,-144.87 399.03,-233.55 561.19,-571.62 -207.75,48.21 -195.28,77.84 -382.37,150.27 -698.41,271.08 -1558.81,295.26 -2286.27,118.15 -494.66,-120.81 -581.89,-220.21 -798.11,-268.42zm66.54 799.73c278.55,21.4 436.43,158.33 773.21,228.1 1538.03,316.67 1953.64,-139.54 2627,-295.26 -137.1,587.74 -931.09,735.35 -1666.91,735.35 -532.01,0 -1683.44,-53.65 -1733.3,-668.19zm3333.8 732.73c-943.73,220.05 -636.12,332.79 -2065.98,332.79 79.04,150.27 112.17,201.14 199.56,332.79 935.16,0 1118.14,-5.44 1866.42,-399.94l0 -265.64zm0 732.57c-536.3,126.09 -681.71,335.41 -1666.9,335.41 0,402.61 -58.23,365.08 211.98,359.64 598.59,-15.96 1022.56,-139.43 1454.92,-426.63l0 -268.42zm-1666.9 1468.09c369.9,0 777.28,-83.28 1093.24,-174.45 532.02,-155.68 436.44,-134.27 640.07,-558.28 -324.15,75.22 -507.13,187.8 -868.8,263.01 -852.05,174.46 -864.51,-120.8 -864.51,469.72zm-3466.75 -534.09c0,-810.57 702.53,-1599.58 1600.33,-1599.58 2003.64,0 2024.29,3134.7 0,3134.7 -548.76,0 -802.22,-163.77 -1084.89,-448.31 -237.05,-238.83 -515.44,-646.68 -515.44,-1086.81z"/>
   <path class="fil1" d="M8909.17 16421.85l246.64 0 0 285.62c52.28,8.1 107.47,21.36 165.65,38.31 58.18,17.67 113.37,42.68 167.14,75.8l-101.6 275.36c-44.93,-25.76 -100.16,-49.33 -165.65,-69.19 -66.28,-19.87 -129.62,-29.46 -189.96,-29.46 -55.23,0 -101.61,11.8 -137.68,34.61 -36.07,23.57 -54.48,55.94 -54.48,97.91 0,39.77 15.46,72.19 47.13,97.2 30.92,25.02 87.6,51.53 170.8,79.5l120.01 39.02c129.58,43.43 228.94,104.56 298.18,184.06 69.19,79.54 103.81,178.2 103.81,295.97 0,55.23 -8.85,108.26 -27.26,158.29 -18.41,50.83 -46.38,96.46 -83.91,137.68 -38.31,41.97 -86.15,76.59 -144.33,105.31 -58.14,28.71 -126.62,47.83 -206.87,58.88l0 301.13 -246.64 0 0 -295.97c-159.04,-15.46 -300.38,-64.79 -423.34,-147.99l127.37 -268c61.09,41.97 123.67,72.14 187.75,92.05 64.04,19.86 126.63,30.17 189.21,30.17 88.35,0 148.7,-15.46 180.36,-45.63 31.67,-30.21 47.88,-63.33 47.88,-99.4 0,-36.82 -13.26,-69.2 -39.77,-96.46 -27.22,-27.22 -79.5,-54.48 -157.55,-80.25l-132.52 -44.17c-55.23,-17.66 -107.51,-40.48 -156.84,-68.45 -49.33,-27.26 -93.5,-60.38 -131.03,-98.65 -38.27,-37.57 -68.49,-81.75 -89.85,-131.07 -21.32,-49.33 -32.37,-105.27 -32.37,-169.35 0,-64.04 11.76,-123.67 36.07,-178.16 24.31,-54.48 56.69,-101.6 98.66,-141.37 41.97,-39.73 91.3,-71.4 148.73,-94.96 56.69,-23.56 119.27,-36.82 186.26,-40.48l0 -287.86z"/>
  </g>
 </g>
</svg>
