<?xml version="1.0" encoding="UTF-8"?>
<!DOCTYPE svg PUBLIC "-//W3C//DTD SVG 1.1//EN" "http://www.w3.org/Graphics/SVG/1.1/DTD/svg11.dtd">
<!-- Creator: CorelDRAW 2020 (64 Bit) -->
<svg xmlns="http://www.w3.org/2000/svg" xml:space="preserve" width="210mm" height="297mm" version="1.1" style="shape-rendering:geometricPrecision; text-rendering:geometricPrecision; image-rendering:optimizeQuality; fill-rule:evenodd; clip-rule:evenodd"
viewBox="0 0 21000 29700"
 xmlns:xlink="http://www.w3.org/1999/xlink"
 xmlns:xodm="http://www.corel.com/coreldraw/odm/2003">
 <defs>
  <style type="text/css">
   <![CDATA[
    .fil1 {fill:#1A1937}
    .fil0 {fill:#F5AD00}
    .fil2 {fill:white}
   ]]>
  </style>
 </defs>
 <g id="Camada_x0020_1">
  <metadata id="CorelCorpID_0Corel-Layer"/>
  <g id="_2218968731744">
   <path class="fil0" d="M10492.86 22850.53c4406.27,0 8000,-3593.73 8000,-7999.99 0,-4406.26 -3593.73,-8000 -8000,-8000 -4406.3,0 -7999.99,3593.74 -7999.99,8000 0,4406.26 3593.69,7999.99 7999.99,7999.99z"/>
   <path class="fil1" d="M6408.42 18231.32c281,66.8 2247.59,1448.36 4507.73,269.47 190.03,-101.33 289.15,-213.48 524.66,-269.47 0,-445.49 -57.85,-688.05 -61.92,-1128.27 -8.29,-461.45 -86.8,-626.75 -462.74,-730.92 -1590.83,-434.72 -710.71,138.74 -2057.6,138.74 -516.51,0 -590.8,-136.08 -925.61,-272.12 -264.46,-106.66 -669.3,50.84 -946.09,122.78 -425.5,106.61 -466.81,248.02 -504,685.53 -37.24,413.49 -74.43,794.89 -74.43,1184.26z"/>
   <path class="fil1" d="M7267.72 14454.34c0,2253.88 3313.62,2245.9 3313.62,66.75 0,-776.26 -689.91,-1589.9 -1458.51,-1589.9 -582.51,0 -913.11,-13.3 -1375.84,477.59 -247.84,261.31 -479.27,765.45 -479.27,1045.56z"/>
   <path class="fil1" d="M8527.95 12797.81l528.87 0c86.8,-1032.26 1260.11,-2053.88 2383.99,-2053.88l466.77 0c1169.41,0 2384.17,1157.66 2384.17,2320.64l0 330.78c0,1240.2 -1227.13,2384.61 -2450.13,2384.61 -541.24,0 -900.74,-26.78 -1392.42,-264.15 -107.4,205.5 -214.85,269.46 -264.41,464.15 462.73,106.79 884.16,330.73 1458.51,330.73 2801.25,0 4222.52,-3312.87 2268.29,-5188.02 -1710.65,-1645.71 -4747.31,-1053.5 -5383.64,1675.14z"/>
   <path class="fil2" d="M11969.29 11972.61c124.29,0 234.22,16.49 328.82,49.47 93.44,34.08 173.72,79.16 239.72,137.46 65.96,58.29 115.48,128.68 149.57,210.06 34.08,81.35 50.57,168.23 50.57,261.72 0,70.34 -7.71,135.24 -23.09,194.64 -16.49,59.35 -39.59,116.54 -70.39,170.44 -30.77,53.9 -69.29,108.87 -115.48,162.73 -47.25,53.9 -100.04,112.19 -159.44,174.87 -57.19,59.4 -105.55,106.65 -144.07,142.95 -38.48,36.31 -69.24,69.29 -92.33,96.77 -23.1,28.59 -39.59,54.97 -48.41,79.17 -9.88,25.31 -14.27,53.9 -14.27,87.99 0,41.76 6.56,79.17 19.77,113.26l-466.24 58.29c-7.71,-26.42 -14.32,-58.29 -21.99,-95.7 -7.71,-37.37 -12.1,-76.96 -12.1,-118.76 0,-105.54 25.27,-195.75 75.85,-271.59 49.51,-74.78 117.69,-157.28 203.46,-247.44 51.69,-53.9 95.66,-103.37 131.96,-146.24 36.26,-42.91 65.96,-82.49 89.06,-119.86 23.09,-37.41 39.58,-75.89 50.58,-114.36 9.92,-38.53 15.42,-81.39 15.42,-127.58 0,-70.39 -24.2,-129.75 -73.72,-177.04 -49.47,-47.3 -115.43,-71.51 -197.92,-71.51 -64.89,0 -123.14,8.83 -174.83,26.42 -51.68,18.67 -107.76,49.47 -167.16,93.45l-197.92 -380.47c80.23,-56.07 173.72,-102.26 278.2,-137.46 104.48,-34.09 219.91,-51.68 346.38,-51.68zm-387.07 2498.44c0,-43.98 8.77,-85.78 25.31,-124.25 16.49,-38.48 39.58,-72.61 69.24,-101.2 29.7,-28.59 63.79,-50.58 101.2,-65.96 37.37,-15.38 76.95,-23.1 117.64,-23.1 41.81,0 81.39,7.72 118.76,23.1 37.41,15.38 70.39,37.37 98.98,65.96 28.59,28.59 51.69,62.72 68.18,101.2 16.49,38.47 25.31,80.27 25.31,124.25 0,95.66 -30.81,171.55 -93.49,229.84 -62.68,58.29 -135.24,87.99 -217.74,87.99 -82.45,0 -156.16,-29.7 -218.84,-87.99 -62.68,-58.29 -94.55,-134.18 -94.55,-229.84z"/>
  </g>
 </g>
</svg>
