<?xml version="1.0" encoding="UTF-8" standalone="no"?>
<svg
   xmlns:dc="http://purl.org/dc/elements/1.1/"
   xmlns:cc="http://creativecommons.org/ns#"
   xmlns:rdf="http://www.w3.org/1999/02/22-rdf-syntax-ns#"
   xmlns:svg="http://www.w3.org/2000/svg"
   xmlns="http://www.w3.org/2000/svg"
   viewBox="0 0 1821.3333 1024"
   height="1024"
   width="1821.3333"
   xml:space="preserve"
   id="svg2"
   version="1.1"><metadata
     id="metadata8"><rdf:RDF><cc:Work
         rdf:about=""><dc:format>image/svg+xml</dc:format><dc:type
           rdf:resource="http://purl.org/dc/dcmitype/StillImage" /></cc:Work></rdf:RDF></metadata><defs
     id="defs6"><clipPath
       id="clipPath18"
       clipPathUnits="userSpaceOnUse"><path
         id="path16"
         d="M 0,768 H 1366 V 0 H 0 Z" /></clipPath></defs><g
     transform="matrix(1.3333333,0,0,-1.3333333,0,1024)"
     id="g10"><g
       id="g12"><g
         clip-path="url(#clipPath18)"
         id="g14"><g
           transform="translate(942.3252,326.0781)"
           id="g20"><path
             id="path22"
             style="fill:#f6ad12;fill-opacity:1;fill-rule:nonzero;stroke:none"
             d="m 0,0 c -4.911,1.061 -9.195,2.02 -12.317,-0.17 -4.645,-3.258 -8.031,-8.052 -11.576,-12.784 5.64,-2.11 8.818,-1.773 12.29,1.215 3.071,2.64 6.071,5.368 9.022,8.143 C -1.765,-2.828 -1.237,-1.752 0,0 m -500.02,-13.438 c 2.711,-0.726 5.363,-1.819 7.334,0.856 3.011,4.086 2.866,4.08 7.298,1.766 2.326,-1.214 4.742,-2.525 7.269,-3.032 8.768,-1.76 14.262,3.966 12.54,13.104 h -6.156 c -2.479,-5.372 -3.352,-5.629 -8.666,-2.628 -1.075,0.607 -2.137,1.26 -3.269,1.74 -8.601,3.65 -17.993,-1.073 -16.35,-11.806 M 303.376,77.543 C 288.64,68.326 289.898,44.21 303.58,36.689 c 13.832,9.184 13.787,31.929 -0.204,40.854 M 60.961,-82.417 c 2.795,-0.179 5.371,-0.536 7.935,-0.466 4.773,0.131 4.972,0.392 4.979,5.337 0.025,18.089 0.021,36.178 -0.011,54.266 -0.003,1.346 -0.308,2.691 -0.515,4.374 -2.416,0.201 -4.502,0.532 -6.585,0.516 -5.699,-0.042 -6.037,-0.412 -6.041,-5.964 -0.013,-17.557 -0.01,-35.114 0.005,-52.67 10e-4,-1.563 0.13,-3.126 0.233,-5.393 M -848.865,47.167 c 0.822,0.278 2.754,0.68 4.445,1.551 10.885,5.607 21.731,11.295 32.555,17.022 1.389,0.735 2.78,1.665 3.825,2.817 4.29,4.724 2.514,12.233 -3.421,14.573 -2.975,1.173 -5.856,0.726 -8.699,-0.782 -10.819,-5.739 -21.686,-11.387 -32.522,-17.093 -1.095,-0.576 -2.19,-1.212 -3.137,-1.997 -3.018,-2.5 -4.049,-6.466 -2.741,-10.115 1.335,-3.723 4.517,-5.937 9.695,-5.976 m 46.927,172.029 c 0.106,3.84 -2.108,6.3 -5.051,8.219 -4.909,3.2 -9.876,6.312 -14.833,9.436 -5.857,3.691 -11.662,7.469 -17.617,10.994 -3.972,2.351 -8.42,1.805 -11.38,-0.951 -2.7,-2.514 -3.91,-6.966 -2.097,-10.269 1.13,-2.057 3.068,-3.911 5.064,-5.21 9.971,-6.491 20.077,-12.774 30.146,-19.114 1.047,-0.66 2.111,-1.344 3.255,-1.792 6.199,-2.425 12.606,2.049 12.513,8.687 m 45.734,42.118 c 3.106,0.253 5.8,1.705 7.466,4.8 1.652,3.07 1.516,6.135 -0.085,9.174 -5.96,11.309 -11.921,22.617 -17.899,33.916 -0.413,0.78 -0.906,1.54 -1.479,2.209 -2.778,3.245 -7.407,4.187 -11.133,2.313 -3.825,-1.924 -5.798,-6.034 -4.779,-10.274 0.327,-1.361 0.94,-2.68 1.587,-3.933 3.012,-5.835 6.077,-11.643 9.132,-17.456 2.644,-5.031 5.305,-10.053 7.95,-15.083 1.893,-3.601 4.755,-5.668 9.24,-5.666 m 64.317,46.068 c -0.462,0 -0.923,-0.001 -1.384,-0.001 0,-6.391 -0.115,-12.784 0.03,-19.172 0.172,-7.613 7.55,-11.93 13.868,-8.198 3.199,1.889 4.467,4.943 4.632,8.507 0.254,5.5 0.43,11.003 0.66,16.504 0.296,7.097 0.74,14.19 0.883,21.29 0.129,6.452 -4.258,10.635 -10.261,10.137 -4.749,-0.395 -8.175,-3.952 -8.372,-9.374 -0.238,-6.556 -0.056,-13.128 -0.056,-19.693 m -160.926,-150.38 c 10e-4,0.41 10e-4,0.821 0.002,1.231 -6.035,0 -12.069,0.044 -18.104,-0.013 -5.749,-0.054 -9.882,-3.714 -10.096,-8.812 -0.22,-5.241 3.295,-9.006 9.157,-9.744 1.407,-0.177 2.832,-0.237 4.251,-0.295 9.052,-0.371 18.105,-0.739 27.159,-1.081 2.84,-0.108 5.694,-0.323 8.523,-0.159 4.793,0.277 8.343,3.881 8.699,8.501 0.365,4.736 -2.458,8.66 -7.265,9.694 -2.237,0.481 -4.578,0.608 -6.876,0.649 -5.149,0.091 -10.3,0.029 -15.45,0.029 m 199.82,-229.008 v 6.048 c 0,13.657 0.007,27.313 -0.003,40.971 -0.004,6.235 -0.377,6.602 -6.566,6.629 -0.708,0.003 -1.417,-0.048 -2.124,-0.104 -4.511,-0.352 -4.703,-0.49 -4.711,-5.129 -0.03,-17.736 -0.037,-35.472 0.004,-53.209 0.012,-5.053 0.867,-5.881 5.871,-5.908 8.513,-0.047 17.027,-0.028 25.54,0.01 1.01,0.004 2.019,0.302 2.916,0.445 1.34,5.021 1.321,5.775 -0.296,10.247 z M 53.403,-18.937 H 6.027 c -0.266,-1.453 -0.662,-2.791 -0.734,-4.146 -0.309,-5.796 0.208,-6.301 6.096,-6.315 3.839,-0.01 7.677,-0.002 11.826,-0.002 v -18.22 c 0,-5.687 -0.037,-11.373 0.01,-17.06 0.047,-5.791 -0.21,-11.599 0.155,-17.161 5.881,-1.574 8.159,-1.514 13.006,0.344 V -29.4 c 4.264,0 7.968,-0.007 11.672,0.002 5.922,0.012 6.718,0.847 6.219,6.764 -0.099,1.189 -0.546,2.349 -0.874,3.697 m 76.493,-48.306 c -3.03,-1.446 -5.633,-2.91 -8.393,-3.964 -9.17,-3.502 -17.867,-0.612 -21.229,7.429 -3.649,8.732 -3.524,17.743 0.287,26.405 2.99,6.799 9.349,9.844 16.656,8.295 2.715,-0.575 5.276,-1.942 7.857,-3.063 1.403,-0.609 2.698,-1.463 4.039,-2.204 3.438,6.131 2.283,11.139 -2.862,13.815 -14.98,7.793 -33.86,0.86 -39.839,-14.875 -3.848,-10.127 -3.849,-20.538 -0.577,-30.825 2.521,-7.926 7.785,-13.462 15.837,-15.993 7.331,-2.303 14.682,-2.229 21.954,0.374 7.599,2.721 9.044,5.821 6.27,14.606 m -527.091,-0.668 c -3.2,-4.784 -2.622,-10.523 1.472,-12.511 9.654,-4.686 19.559,-5.1 29.129,0.053 11.884,6.398 13.178,25.091 0.661,32.181 -2.767,1.567 -5.688,2.863 -8.534,4.291 -2.056,1.032 -4.207,1.918 -6.137,3.15 -3.507,2.238 -4.656,4.923 -3.74,7.985 0.919,3.072 3.342,5.036 7.395,4.815 3.282,-0.179 6.537,-1.268 9.745,-2.164 1.647,-0.461 3.165,-1.382 4.73,-2.091 3.458,7.186 1.872,11.326 -4.907,13.356 -6.099,1.827 -12.267,1.941 -18.339,-0.042 -6.38,-2.082 -10.717,-6.363 -11.944,-13.053 -1.339,-7.304 0.332,-13.859 6.645,-18.432 2.557,-1.853 5.512,-3.17 8.332,-4.645 2.352,-1.229 4.868,-2.169 7.138,-3.526 4.047,-2.42 5.252,-5.079 4.349,-8.78 -0.786,-3.22 -3.824,-5.418 -8.06,-5.794 -4.734,-0.421 -9.151,0.655 -13.327,2.86 -1.535,0.811 -3.093,1.577 -4.608,2.347 m 630.481,35.304 c 0.242,2.567 0.523,4.262 0.539,5.961 0.048,4.906 -0.5,5.71 -5.157,7.371 -6.565,2.341 -13.241,2.452 -19.844,0.306 -7.293,-2.37 -11.533,-8.313 -11.934,-15.941 -0.393,-7.462 2.571,-13.122 8.974,-16.853 3.051,-1.777 6.384,-3.062 9.508,-4.723 2.176,-1.157 4.462,-2.298 6.263,-3.928 3.642,-3.298 2.951,-8.834 -1.321,-11.221 -1.491,-0.833 -3.318,-1.259 -5.04,-1.454 -4.538,-0.515 -8.784,0.662 -12.809,2.733 -1.671,0.86 -3.36,1.686 -5.028,2.521 -2.916,-5.983 -2.229,-10.755 2.001,-12.75 9.517,-4.486 19.225,-4.827 28.668,0.127 11.596,6.084 13.772,24.602 0.959,32.157 -3.193,1.884 -6.648,3.32 -9.952,5.023 -2.04,1.05 -4.149,2.041 -5.997,3.378 -2.295,1.661 -3.558,4.004 -2.718,6.955 0.811,2.846 2.824,4.347 5.728,4.843 4.017,0.687 7.735,-0.221 11.349,-1.872 1.688,-0.771 3.38,-1.533 5.811,-2.633 m -980.195,-0.06 c 0.243,2.492 0.521,4.149 0.545,5.81 0.073,5.136 -0.552,6.089 -5.429,7.713 -6.221,2.073 -12.559,2.338 -18.843,0.369 -6.802,-2.132 -11.25,-6.544 -12.404,-13.812 -1.187,-7.476 0.873,-13.746 7.215,-18.18 2.308,-1.613 4.907,-2.827 7.424,-4.125 2.516,-1.296 5.199,-2.295 7.623,-3.736 3.806,-2.266 5.141,-5.026 4.42,-8.277 -0.751,-3.388 -3.604,-5.688 -7.791,-6.169 -4.724,-0.543 -9.164,0.481 -13.378,2.604 -1.696,0.856 -3.384,1.729 -5.048,2.58 -3.642,-6.173 -2.324,-11.298 3.545,-13.56 8.614,-3.32 17.337,-3.645 25.836,0.405 6.878,3.277 10.315,9.045 10.702,16.539 0.385,7.443 -2.956,13.027 -9.354,16.681 -3.068,1.753 -6.391,3.053 -9.543,4.665 -2.042,1.044 -4.102,2.124 -5.942,3.476 -2.151,1.58 -3.139,3.871 -2.483,6.569 0.703,2.893 2.699,4.431 5.588,4.981 4.012,0.763 7.743,-0.158 11.371,-1.759 1.717,-0.756 3.403,-1.585 5.946,-2.774 m 580.068,13.959 c -11.298,0 -22.109,0.08 -32.919,-0.047 -3.304,-0.039 -4.051,-1.145 -4.063,-5.457 -0.051,-17.574 -0.054,-35.149 0,-52.724 0.015,-5.072 0.78,-5.752 5.974,-5.774 9.232,-0.041 18.463,-0.027 27.694,0.009 1.179,0.005 2.357,0.276 3.496,0.419 1.324,3.394 1.499,6.436 -0.499,9.969 -3.683,0 -7.555,-0.013 -11.428,0.003 -3.985,0.017 -7.972,0.062 -11.884,0.093 v 17.551 h 5.491 c 3.729,10e-4 7.462,-0.115 11.181,0.066 1.277,0.063 3.456,0.675 3.602,1.373 0.487,2.346 0.643,4.925 0.167,7.259 -0.469,2.294 -2.87,1.555 -4.543,1.575 -5.298,0.065 -10.598,0.024 -15.972,0.024 v 15.298 c 6.176,0 12.178,-0.009 18.179,0.003 6.175,0.011 6.685,0.549 6.238,6.704 -0.075,1.04 -0.394,2.062 -0.714,3.656 m -262.614,-36.284 c 1.522,0.115 2.906,0.298 4.291,0.311 4.262,0.041 8.525,0.006 12.787,0.026 1.632,0.008 3.183,0.113 3.819,2.095 1.701,5.291 -0.245,8.17 -5.638,8.188 -5.068,0.017 -10.136,0.004 -15.128,0.004 v 15.297 c 5.939,0 11.594,-0.002 17.248,0.001 7.257,0.003 7.886,0.712 6.97,7.971 -0.085,0.671 -0.41,1.312 -0.758,2.382 -10.993,0 -21.977,0.073 -32.959,-0.05 -2.864,-0.032 -3.768,-1.215 -3.78,-4.628 -0.062,-18.115 -0.065,-36.231 -0.003,-54.346 0.014,-4.048 0.96,-4.908 5.133,-4.958 6.926,-0.082 13.853,-0.023 20.78,-0.023 h 10.738 c 0.502,0.876 0.757,1.162 0.842,1.493 1.867,7.21 0.571,8.912 -6.77,8.916 -5.826,0.001 -11.653,0 -17.572,0 z m 124.726,0.326 c 2.218,0 3.966,0 5.713,10e-4 3.911,10e-4 7.825,-0.095 11.728,0.065 1.118,0.046 3.056,0.69 3.157,1.301 0.398,2.403 0.704,5.029 0.11,7.332 -0.624,2.415 -3.255,1.545 -5.102,1.572 -5.134,0.076 -10.272,0.027 -15.553,0.027 v 15.297 c 6.336,0 12.52,-0.016 18.704,0.005 5.571,0.018 6.208,0.65 5.869,6.077 -0.084,1.343 -0.548,2.663 -0.902,4.294 -10.035,0 -19.79,0.005 -29.546,-0.002 -7.105,-0.006 -7.303,-0.189 -7.309,-7.087 -0.012,-15.641 0.058,-31.281 -0.024,-46.922 -0.057,-10.828 -0.095,-10.064 10.296,-10.023 8.866,0.035 17.732,0.007 26.539,0.007 1.752,3.588 1.903,6.743 -0.073,10.223 -7.789,0.545 -15.712,-0.213 -23.607,0.443 z m 305.063,35.95 c -11.445,0 -22.437,0.078 -33.425,-0.055 -2.784,-0.034 -3.53,-1.171 -3.541,-4.795 -0.052,-18.121 -0.059,-36.241 0.005,-54.361 0.015,-3.967 0.783,-4.736 4.702,-4.762 10.302,-0.069 20.605,0.005 30.906,0.06 0.476,0.003 0.95,0.38 1.55,0.636 0.19,0.645 0.49,1.299 0.563,1.976 0.75,7.128 0.242,7.698 -6.763,7.703 -5.812,0.004 -11.626,10e-4 -17.91,10e-4 v 8.888 8.76 c 5.507,0 10.447,-0.023 15.386,0.006 5.262,0.03 6.255,1.054 5.803,6.226 -0.115,1.315 -0.725,2.586 -1.222,4.262 h -19.967 v 7.4 7.086 c 0.892,0.318 1.209,0.527 1.528,0.53 5.861,0.043 11.722,0.039 17.583,0.091 4.973,0.043 5.599,0.643 5.476,5.451 -0.039,1.526 -0.408,3.045 -0.674,4.897 M -518.417,-67.87 c -0.568,0.12 -0.776,0.238 -0.9,0.18 -1.898,-0.899 -3.783,-1.826 -5.675,-2.736 -11.488,-5.521 -22.184,-0.875 -24.905,11 -1.28,5.589 -1.293,11.33 0.002,16.918 2.967,12.794 13.876,17.472 25.331,11.022 0.77,-0.435 1.468,-1.008 2.262,-1.388 1.029,-0.493 2.119,-0.855 3.188,-1.276 3.135,8.39 1.532,12.099 -6.07,14.818 -16.797,6.009 -33.243,-2.38 -38.155,-19.48 -2.308,-8.032 -2.387,-16.154 -0.398,-24.215 2.53,-10.255 8.408,-17.556 19.201,-19.796 3.389,-0.703 3.82,-3.364 4.695,-5.764 0.763,-2.093 -0.142,-3.514 -2.455,-3.623 -2.253,-0.106 -4.515,-0.023 -6.623,-0.023 -1.174,-5.301 -0.986,-6.611 1.457,-7.391 3.923,-1.253 7.965,-1.835 12.045,-0.592 5.143,1.568 7.433,5.512 6.085,10.679 -0.478,1.837 -1.271,3.592 -2.017,5.652 2.255,0.688 4.292,1.209 6.258,1.924 7.596,2.764 9.074,5.861 6.674,14.091 m -108.51,48.461 c 0,-14.974 -0.444,-29.532 0.148,-44.049 0.433,-10.618 6.883,-17.318 17.275,-19.461 3.607,-0.744 7.404,-0.963 11.094,-0.831 14.854,0.528 23.576,9.614 23.654,24.469 0.063,11.903 0.024,23.807 -10e-4,35.712 -0.003,1.379 -0.204,2.757 -0.304,4.017 -5.308,1.619 -7.426,1.593 -12.384,-0.185 -0.07,-1.585 -0.211,-3.322 -0.214,-5.057 -0.021,-10.839 0.009,-21.677 -0.028,-32.514 -0.007,-1.945 -0.012,-3.941 -0.427,-5.823 -1.457,-6.601 -6.326,-10.189 -13.174,-9.929 -6.617,0.252 -10.942,3.931 -12.101,10.512 -0.398,2.258 -0.534,4.586 -0.547,6.883 -0.056,10.305 -0.024,20.609 -0.024,30.915 v 5.208 c -4.479,1.603 -8.409,1.468 -12.967,0.133 M 192.946,-82.05 c -0.683,2.307 -1.189,4.293 -1.858,6.223 -5.39,15.562 -10.819,31.111 -16.218,46.671 -4.112,11.85 -4.175,11.844 -16.542,10.716 -2.457,-0.224 -3.899,-1.124 -4.698,-3.453 -6.504,-18.928 -13.068,-37.836 -19.561,-56.769 -0.363,-1.06 -0.266,-2.277 -0.441,-3.982 2.714,-0.12 4.966,-0.344 7.211,-0.291 4.817,0.115 4.817,0.174 6.365,4.693 1.136,3.314 2.27,6.63 3.361,9.818 h 23.808 c 0.639,-1.889 1.205,-3.552 1.762,-5.217 3.423,-10.236 3.423,-10.24 14.216,-9.172 0.511,0.049 1.004,0.287 2.595,0.763 m -315.433,29.293 c 5.123,2.236 8.854,5.318 10.474,10.409 3.828,12.024 -3.158,22.318 -16.447,23.399 -7.579,0.616 -15.243,0.186 -22.869,0.252 -2.629,0.023 -3.905,-1.415 -4.171,-3.85 -0.152,-1.404 -0.088,-2.834 -0.088,-4.252 -0.005,-15.964 -0.003,-31.928 -0.003,-47.891 0,-8.469 0.582,-8.994 9.089,-8.198 3.765,0.353 4.237,0.763 4.308,4.493 0.083,4.433 0.019,8.869 0.019,13.303 0.001,2.75 0,5.5 0,8.184 8.239,0.478 10.169,-0.528 13.226,-7.217 2.28,-4.988 4.133,-10.17 6.378,-15.175 0.592,-1.32 1.81,-3.119 2.953,-3.292 3.77,-0.568 7.68,-1.027 12.449,0.977 -4.62,9.807 -6.614,20.563 -15.318,28.858 m 72.444,18.593 c 2.688,9.49 1.347,12.063 -6.863,14.719 -6.388,2.067 -12.961,2.469 -19.493,1.501 -12.677,-1.879 -21.582,-8.701 -25.497,-21.185 -2.451,-7.812 -2.479,-15.813 -0.249,-23.657 2.709,-9.521 8.778,-16.09 18.358,-19.116 10.596,-3.347 21.03,-2.227 31.361,1.268 2.042,0.691 3.392,1.932 3.397,4.219 0.015,8.707 0.098,17.415 -0.037,26.12 -0.047,3.044 -1.123,3.959 -4.413,4.031 -6.04,0.134 -12.083,0.074 -18.125,0.035 -1.19,-0.008 -2.378,-0.287 -3.91,-0.484 v -9.41 h 13.502 v -7.279 -7.195 c -11.915,-5.461 -23.556,-0.288 -26.993,11.71 -1.496,5.222 -1.516,10.566 -0.115,15.798 2.478,9.256 9.561,14.594 19.102,14.762 5.466,0.097 10.503,-1.43 15.364,-3.757 1.387,-0.664 2.805,-1.268 4.611,-2.08 m -463.732,-17.122 c 1.004,-5.373 1.556,-10.883 3.119,-16.088 2.294,-7.636 7.691,-12.622 15.366,-14.939 6.225,-1.88 12.619,-2.125 18.976,-1.022 11.861,2.059 19.331,9.074 22.363,20.726 2.378,9.136 2.284,18.301 -0.452,27.321 -2.746,9.057 -8.779,14.764 -18.17,16.769 -6.527,1.395 -13.042,1.489 -19.507,-0.18 -8.431,-2.177 -14.441,-7.272 -17.905,-15.317 -2.36,-5.48 -3.181,-11.229 -3.79,-17.27 m -161.744,1.66 c -0.912,4.944 -1.426,10.281 -2.935,15.319 -2.345,7.828 -7.815,12.985 -15.695,15.313 -6.229,1.84 -12.649,2.054 -18.99,0.894 -11.342,-2.074 -18.752,-8.731 -21.913,-19.91 -2.732,-9.661 -2.51,-19.351 0.481,-28.859 2.717,-8.637 8.693,-14.259 17.671,-15.84 5.009,-0.881 10.29,-1.351 15.314,-0.793 12.072,1.338 20.329,7.941 23.612,19.869 1.212,4.403 1.609,9.029 2.455,14.007 m 980.123,154.041 c 2.618,-0.242 6.034,-0.258 9.325,-0.909 40.047,-7.915 59.199,-52.292 37.068,-86.533 -9.579,-14.82 -15.222,-30.78 -17.26,-48.165 -0.241,-2.054 -1.242,-4.771 1.772,-5.252 2.938,-0.47 3.01,2.374 3.383,4.412 0.926,5.064 1.562,10.193 2.71,15.205 2.523,11.024 7.366,21.027 13.524,30.507 10.694,16.461 13.586,34.356 7.266,52.975 -8.281,24.39 -25.573,39.248 -51.183,42.312 -26.951,3.223 -48.215,-7.547 -61.547,-31.243 -11.973,-21.279 -10.698,-43.022 2.289,-63.696 7.277,-11.582 12.901,-23.65 14.922,-37.277 0.729,-4.912 1.856,-9.765 2.72,-14.658 0.607,-3.446 2.524,-6.009 5.628,-7.262 5.437,-2.194 11.197,-1.14 16.83,-0.881 0.709,0.032 2.016,1.568 1.886,2.14 -0.227,0.986 -1.217,2.045 -2.166,2.547 -0.855,0.454 -2.083,0.24 -3.147,0.256 -2.487,0.034 -4.977,-0.013 -7.463,0.048 -4.772,0.12 -5.749,0.952 -6.773,5.702 -0.225,1.04 -0.367,2.099 -0.508,3.155 -2.477,18.388 -8.091,35.54 -18.781,50.983 -5.236,7.564 -7.44,16.424 -7.989,25.65 -1.942,32.674 23.567,60.122 57.494,59.984 M -228.374,-61.721 c -0.268,-0.018 -0.535,-0.037 -0.803,-0.054 -5.965,11.277 -11.915,22.562 -17.897,33.831 -4.972,9.366 -4.988,9.357 -15.571,9.249 -5.842,-0.061 -6.876,-1.007 -6.905,-6.757 -0.05,-10.298 -0.014,-20.597 -0.014,-30.895 0,-7.28 -0.049,-14.56 0.045,-21.839 0.018,-1.323 0.453,-3.698 0.981,-3.782 3.066,-0.486 6.304,-0.928 9.314,-0.405 2.394,0.416 1.655,3.199 1.651,5.051 -0.022,11.893 -0.132,23.785 -0.173,35.678 -0.005,1.292 0.242,2.586 0.494,5.082 1.096,-1.636 1.614,-2.276 1.99,-2.991 6.189,-11.77 12.568,-23.448 18.445,-35.373 2.871,-5.827 6.636,-8.637 13.339,-7.974 5.852,0.58 6.856,1.075 6.866,6.868 0.026,17.4 0.009,34.802 0.008,52.202 0,0.888 0.209,1.858 -0.082,2.641 -0.329,0.887 -1.086,2.262 -1.703,2.287 -2.962,0.116 -6.095,0.33 -8.824,-0.555 -0.913,-0.296 -0.971,-3.732 -1.118,-5.756 -0.181,-2.473 -0.043,-4.969 -0.043,-7.454 z M 306.114,2.313 c 10.124,1.685 18.632,5.705 24.483,14.038 5.925,8.441 7.782,17.684 5.11,27.985 -14.847,0.564 -24.852,-6.829 -32.289,-19.131 -7.232,12.985 -17.554,19.453 -31.698,19.418 -2.883,-7.31 -1.245,-16.775 1.576,-22.709 5.49,-11.548 15.302,-17.188 27.527,-19.424 v -5.786 c 0.001,-11.016 -0.061,-22.031 0.028,-33.046 0.056,-6.955 3.227,-10.094 10.086,-10.201 4.619,-0.071 9.24,0.039 13.858,-0.051 1.568,-0.03 3.242,-0.154 4.653,-0.747 0.955,-0.4 2.281,-1.884 2.114,-2.548 -0.282,-1.117 -1.453,-2.398 -2.553,-2.825 -1.42,-0.551 -3.14,-0.42 -4.732,-0.424 -11.903,-0.03 -23.807,0.043 -35.71,-0.072 -2.625,-0.025 -5.392,-0.26 -7.832,-1.133 -3.348,-1.197 -5.672,-3.719 -5.656,-7.604 0.015,-3.886 2.365,-6.349 5.716,-7.565 2.274,-0.825 4.858,-1.068 7.309,-1.092 10.836,-0.11 21.674,-0.007 32.512,-0.083 1.913,-0.012 3.958,-0.167 5.701,-0.86 2.196,-0.873 2.308,-3.543 0.176,-4.493 -1.864,-0.83 -4.082,-1.168 -6.149,-1.189 -10.836,-0.112 -21.675,-0.041 -32.512,-0.066 -2.07,-0.005 -4.89,0.465 -4.855,-2.597 0.032,-2.911 2.752,-2.683 4.892,-2.684 11.37,-0.006 22.741,-0.062 34.11,0.052 2.082,0.021 4.289,0.422 6.203,1.215 3.121,1.293 5.323,3.688 5.363,7.287 0.039,3.563 -1.885,6.213 -5.121,7.391 -2.436,0.887 -5.158,1.314 -7.761,1.349 -10.835,0.146 -21.674,0.027 -32.511,0.106 -1.919,0.014 -3.899,0.304 -5.719,0.881 -0.782,0.248 -1.694,1.556 -1.694,2.383 0,0.823 0.915,2.128 1.698,2.375 1.819,0.575 3.798,0.866 5.715,0.879 12.08,0.075 24.163,-0.051 36.243,0.117 2.765,0.038 5.671,0.579 8.238,1.589 2.993,1.178 4.619,3.802 4.575,7.183 -0.041,3.173 -1.663,5.542 -4.423,6.743 -2.215,0.963 -4.718,1.561 -7.13,1.707 -4.426,0.265 -8.879,0.048 -13.32,0.088 -5.616,0.05 -6.172,0.57 -6.204,6.059 -0.046,7.995 -0.015,15.99 -0.016,23.985 -0.001,4.417 -0.001,8.834 -0.001,13.5 m -697.697,117.775 v 94.354 c -10e-4,9.217 -1.026,10.214 -10.382,10.096 -0.355,-0.004 -0.71,-0.017 -1.065,-0.031 -7.478,-0.291 -8.502,-1.349 -8.502,-8.829 -0.002,-63.791 -0.001,-127.581 -0.001,-191.372 0,-1.244 0.036,-2.489 0,-3.732 -0.073,-2.522 1.171,-4.336 3.569,-4.511 4.2,-0.304 8.452,-0.348 12.65,-0.051 2.66,0.188 3.897,2.192 3.738,4.926 -0.061,1.063 -0.007,2.131 -0.007,3.198 z m 324.28,-0.619 v 95.427 c -0.001,8.677 -0.959,9.626 -9.734,9.65 -0.533,0.002 -1.067,-0.007 -1.599,-0.026 -7.555,-0.274 -8.568,-1.303 -8.568,-8.744 -0.002,-63.973 -0.001,-127.947 0,-191.921 0,-1.243 10e-4,-2.487 0.02,-3.731 0.035,-2.29 1.244,-3.926 3.435,-4.034 4.377,-0.217 8.785,-0.213 13.158,0.059 2.212,0.138 3.283,1.895 3.271,4.163 -0.007,1.42 0.016,2.842 0.016,4.263 0.001,31.632 0.001,63.263 0.001,94.894 m -446.942,86.658 v -6.261 c 0,-58.611 0,-117.222 10e-4,-175.833 0,-7.54 0.928,-8.493 8.435,-8.693 0.71,-0.019 1.421,-0.014 2.131,-0.003 8.142,0.12 8.985,0.982 8.985,9.199 10e-4,58.433 -0.001,116.866 0.006,175.299 0.001,2.042 0.089,4.084 0.141,6.292 h 3.911 c 17.938,0 35.877,0 53.815,0 1.243,0 2.494,-0.084 3.728,0.026 3.632,0.325 5.125,2.564 5.302,7.812 0.193,5.713 -1.367,8.957 -4.734,9.475 -1.565,0.241 -3.189,0.123 -4.787,0.123 -44.757,0.005 -89.514,0.004 -134.272,0.004 -1.065,0 -2.132,0.037 -3.196,-0.01 -3.887,-0.173 -4.973,-0.977 -5.845,-4.807 -0.388,-1.706 -0.524,-3.522 -0.441,-5.272 0.278,-5.887 1.875,-7.342 7.852,-7.346 17.76,-0.012 35.521,-0.005 53.282,-0.005 z m 580.163,-0.019 c -1.334,-2.256 -2.082,-3.617 -2.92,-4.921 C 48.511,178.636 34.016,156.09 19.516,133.547 0.215,103.541 -19.018,73.488 -38.458,43.571 c -4.063,-6.251 -6.072,-12.73 -5.169,-20.113 0.586,-4.792 2.812,-6.905 7.613,-7.155 1.063,-0.056 2.131,-0.019 3.198,-0.019 38.372,0 76.744,-10e-4 115.116,0.001 1.243,0 2.486,0.028 3.73,0.023 2.513,-0.012 3.969,1.394 4.607,3.648 0.431,1.526 0.765,3.126 0.819,4.704 0.248,7.192 -1.661,9.111 -8.885,9.111 -32.864,0.004 -65.729,0.002 -98.594,0.002 h -6.564 c 1.385,2.361 2.198,3.87 3.123,5.307 33.891,52.702 67.734,105.437 101.776,158.042 3.811,5.891 5.111,11.959 4.537,18.686 -0.472,5.524 -2.602,7.551 -8.078,7.777 -1.063,0.044 -2.13,0.012 -3.197,0.012 -35.885,0 -71.769,0.001 -107.655,-0.002 -1.421,0 -2.874,0.151 -4.252,-0.1 -1.15,-0.21 -2.646,-0.6 -3.239,-1.44 -2.792,-3.955 -2.494,-8.367 -1.145,-12.738 1.218,-3.94 4.613,-3.198 7.564,-3.2 30.911,-0.014 61.821,-0.009 92.732,-0.009 z m 66.258,0 h 5.803 c 24.873,0 49.744,-0.001 74.616,0.001 1.421,0 2.879,-0.174 4.251,0.089 1.135,0.217 2.612,0.67 3.173,1.522 2.654,4.035 2.252,8.452 0.809,12.776 -1.291,3.871 -4.731,3.084 -7.666,3.087 -29.491,0.023 -58.981,0.015 -88.473,0.012 -1.243,0 -2.493,0.049 -3.728,-0.052 -5.424,-0.442 -8.406,-3.403 -8.854,-8.796 -0.101,-1.235 -0.024,-2.486 -0.024,-3.729 -0.001,-60.758 -0.002,-121.517 0.004,-182.275 0,-1.597 -0.089,-3.218 0.148,-4.785 0.654,-4.314 3.411,-6.976 7.75,-7.546 1.4,-0.184 2.836,-0.123 4.257,-0.123 30.201,-0.007 60.403,-0.006 90.604,-0.004 1.065,0 2.132,0.028 3.197,0.027 2.518,-0.003 4.018,1.481 4.622,3.671 0.511,1.854 0.776,3.863 0.686,5.781 -0.324,6.837 -2.219,8.128 -8.339,8.085 -25.581,-0.179 -51.164,-0.076 -76.746,-0.076 h -6.073 v 82.611 h 6.038 c 20.963,0 41.927,-0.001 62.89,0.002 1.421,0 2.901,-0.219 4.246,0.107 1.281,0.311 2.973,0.899 3.526,1.896 2.098,3.783 1.788,7.907 0.418,11.844 -1.311,3.769 -4.758,3.077 -7.716,3.08 -21.141,0.023 -42.283,0.012 -63.423,0.012 h -5.996 z m -717.343,-65.925 c 0,1.243 0.011,2.487 -10e-4,3.73 -0.193,20.191 -2.648,40.027 -9.957,58.991 -11.202,29.06 -31.744,47.849 -62.161,55.212 -17.647,4.272 -35.575,4.488 -53.421,1.38 -28.048,-4.885 -50.147,-18.944 -65.15,-43.495 -4.838,-7.915 -8.484,-16.371 -11.163,-25.231 -7.025,-23.247 -8.544,-47.053 -6.986,-71.144 1.034,-15.999 3.518,-31.736 9.017,-46.877 8.659,-23.844 23.915,-41.646 47.572,-51.687 9.721,-4.126 19.93,-6.386 30.403,-7.303 18.368,-1.609 36.581,-0.832 54.188,5.23 28.645,9.864 47.201,29.954 57.653,57.931 7.614,20.384 10.203,41.617 10.006,63.263 m 433.071,63.066 c 0.444,-0.092 0.887,-0.183 1.33,-0.273 v -6.33 c 0,-57.4 0,-114.801 0.001,-172.202 0,-1.422 0.039,-2.843 0.011,-4.264 -0.046,-2.321 1.108,-3.799 3.322,-4.117 2.793,-0.4 5.635,-0.743 8.446,-0.674 6.928,0.167 7.875,1.246 7.875,8.153 0.003,62.376 0.002,124.752 -0.001,187.129 0,1.421 0.056,2.851 -0.076,4.262 -0.505,5.394 -3.531,8.394 -8.966,8.602 -4.258,0.163 -8.528,-0.01 -12.792,-0.015 -4.82,-0.006 -8.68,-2.052 -11.285,-5.979 -2.046,-3.083 -3.816,-6.404 -5.296,-9.799 -22.756,-52.205 -45.445,-104.44 -68.157,-156.664 -0.677,-1.558 -1.451,-3.074 -2.521,-5.329 -0.953,2.195 -1.583,3.592 -2.171,5.005 -21.585,51.928 -43.164,103.859 -64.755,155.785 -1.021,2.456 -2.043,4.92 -3.247,7.288 -3.087,6.069 -8.161,9.206 -14.904,9.592 -3.19,0.184 -6.4,0.018 -9.59,0.198 -10.161,0.575 -12.982,-3.763 -12.954,-12.846 0.195,-62.375 0.102,-124.752 0.103,-187.128 0,-1.245 0.039,-2.489 0,-3.732 -0.066,-2.107 0.964,-3.463 2.969,-3.779 2.611,-0.413 5.267,-0.787 7.901,-0.769 7.879,0.057 8.695,0.973 8.695,8.893 0.001,57.578 -10e-4,115.156 0.008,172.734 0,1.991 0.108,3.983 0.166,5.973 1.825,-1.542 2.66,-3.206 3.368,-4.923 18.995,-46.088 37.975,-92.183 56.962,-138.276 5.338,-12.958 10.623,-25.94 16.098,-38.84 0.766,-1.803 2.179,-3.936 3.834,-4.636 4.006,-1.695 8.326,-1.375 12.502,-0.062 3.247,1.02 3.654,4.163 4.742,6.67 25.365,58.422 50.676,116.867 76.006,175.304 0.74,1.705 1.582,3.366 2.376,5.049 m -901.582,629.026 H 547.028 V -768.431 h -1600.706 z" /></g><g
           transform="translate(790.2295,529.3267)"
           id="g24"><path
             id="path26"
             style="fill:#120e59;fill-opacity:1;fill-rule:nonzero;stroke:none"
             d="m 0,0 c -0.794,-1.682 -1.637,-3.343 -2.376,-5.049 -25.33,-58.437 -50.642,-116.882 -76.006,-175.303 -1.089,-2.508 -1.495,-5.65 -4.742,-6.671 -4.176,-1.312 -8.496,-1.633 -12.502,0.063 -1.655,0.7 -3.068,2.833 -3.834,4.635 -5.476,12.901 -10.761,25.882 -16.099,38.841 -18.986,46.092 -37.966,92.187 -56.962,138.276 -0.707,1.716 -1.542,3.38 -3.367,4.923 -0.058,-1.991 -0.166,-3.982 -0.167,-5.973 -0.008,-57.578 -0.007,-115.157 -0.007,-172.735 0,-7.92 -0.816,-8.836 -8.695,-8.892 -2.634,-0.019 -5.29,0.355 -7.902,0.768 -2.004,0.317 -3.034,1.672 -2.968,3.78 0.039,1.243 0,2.487 0,3.731 -10e-4,62.377 0.091,124.753 -0.103,187.129 -0.028,9.082 2.793,13.421 12.954,12.846 3.19,-0.181 6.4,-0.015 9.59,-0.198 6.743,-0.387 11.816,-3.524 14.903,-9.593 1.204,-2.368 2.227,-4.832 3.248,-7.287 21.591,-51.926 43.17,-103.857 64.755,-155.786 0.588,-1.413 1.217,-2.809 2.171,-5.005 1.07,2.255 1.843,3.771 2.521,5.33 22.712,52.224 45.4,104.459 68.156,156.664 1.481,3.395 3.25,6.716 5.296,9.798 2.606,3.928 6.466,5.973 11.285,5.979 4.265,0.006 8.535,0.178 12.792,0.015 5.436,-0.207 8.461,-3.207 8.966,-8.602 0.133,-1.411 0.076,-2.841 0.076,-4.262 0.003,-62.376 0.004,-124.753 0.001,-187.129 0,-6.907 -0.946,-7.986 -7.875,-8.153 -2.81,-0.068 -5.652,0.275 -8.445,0.675 -2.215,0.317 -3.368,1.796 -3.322,4.116 0.028,1.421 -0.011,2.843 -0.011,4.265 C 1.33,-121.404 1.33,-64.003 1.33,-6.603 v 6.33 C 0.887,-0.182 0.443,-0.091 0,0" /></g><g
           transform="translate(333.1562,464.1094)"
           id="g28"><path
             id="path30"
             style="fill:#120e59;fill-opacity:1;fill-rule:nonzero;stroke:none"
             d="m 0,0 c -0.671,8.851 -1.043,17.737 -2.082,26.545 -1.629,13.822 -4.946,27.22 -11.572,39.628 -9.295,17.404 -23.451,28.715 -42.501,33.744 -10.937,2.888 -22.155,3.254 -33.35,2.3 -24.052,-2.051 -42.751,-13.172 -55.594,-33.761 -6.474,-10.381 -10.215,-21.796 -12.535,-33.741 -3.864,-19.893 -4.1,-39.914 -1.887,-59.97 1.503,-13.625 4.224,-26.989 10.273,-39.483 9.504,-19.626 24.623,-32.198 46.041,-36.883 12.635,-2.764 25.356,-2.805 38.127,-0.946 12.634,1.838 23.777,6.961 33.562,15.075 12.007,9.957 19.502,22.89 24.207,37.535 C -2.1,-33.735 -0.495,-16.977 0,0 m 24,2.152 c 0.199,-21.647 -2.39,-42.879 -10.004,-63.263 -10.452,-27.977 -29.008,-48.068 -57.653,-57.931 -17.607,-6.062 -35.82,-6.839 -54.188,-5.23 -10.473,0.917 -20.682,3.176 -30.403,7.302 -23.657,10.041 -38.913,27.844 -47.572,51.688 -5.499,15.141 -7.983,30.878 -9.017,46.877 -1.558,24.091 -0.039,47.897 6.986,71.143 2.679,8.861 6.325,17.317 11.163,25.232 15.003,24.551 37.102,38.61 65.15,43.494 17.846,3.108 35.774,2.892 53.421,-1.38 C -17.7,112.722 2.842,93.933 14.043,64.873 21.353,45.909 23.808,26.073 24.001,5.882 24.013,4.639 24.002,3.395 24,2.152" /></g><g
           transform="translate(1074.501,532.186)"
           id="g32"><path
             id="path34"
             style="fill:#120e59;fill-opacity:1;fill-rule:nonzero;stroke:none"
             d="m 0,0 v -72.783 h 5.996 c 21.141,0 42.282,0.011 63.423,-0.012 2.958,-0.003 6.405,0.689 7.716,-3.08 1.37,-3.937 1.68,-8.061 -0.418,-11.844 -0.553,-0.997 -2.244,-1.585 -3.526,-1.896 -1.344,-0.326 -2.825,-0.107 -4.246,-0.107 -20.963,-0.003 -41.926,-0.002 -62.889,-0.002 H 0.018 v -82.61 H 6.09 c 25.582,0 51.165,-0.104 76.746,0.075 6.12,0.043 8.016,-1.248 8.339,-8.085 0.091,-1.918 -0.175,-3.927 -0.686,-5.781 -0.604,-2.19 -2.104,-3.674 -4.622,-3.671 -1.065,0.002 -2.132,-0.027 -3.197,-0.027 -30.201,-0.002 -60.402,-0.003 -90.604,0.004 -1.42,0 -2.857,-0.061 -4.256,0.123 -4.339,0.571 -7.097,3.232 -7.75,7.546 -0.238,1.567 -0.149,3.189 -0.149,4.785 -0.006,60.759 -0.005,121.517 -0.004,182.275 0,1.243 -0.077,2.494 0.025,3.729 0.447,5.393 3.429,8.354 8.853,8.796 1.236,0.101 2.486,0.052 3.729,0.052 29.491,0.003 58.981,0.012 88.472,-0.012 2.935,-0.003 6.375,0.784 7.666,-3.087 C 90.095,10.064 90.497,5.647 87.843,1.612 87.282,0.76 85.806,0.307 84.67,0.09 83.298,-0.173 81.84,0.001 80.419,0.001 55.547,0 30.676,0 5.804,0 Z" /></g><g
           transform="translate(1008.2432,532.186)"
           id="g36"><path
             id="path38"
             style="fill:#120e59;fill-opacity:1;fill-rule:nonzero;stroke:none"
             d="m 0,0 h -6.339 c -30.911,0 -61.821,-0.005 -92.732,0.009 -2.95,0.002 -6.346,-0.74 -7.564,3.2 -1.349,4.372 -1.647,8.783 1.145,12.738 0.593,0.84 2.089,1.23 3.239,1.44 1.378,0.251 2.831,0.1 4.252,0.1 35.886,0.003 71.77,0.002 107.655,0.002 1.067,0 2.134,0.032 3.198,-0.012 5.475,-0.226 7.605,-2.253 8.077,-7.777 0.574,-6.727 -0.726,-12.795 -4.537,-18.686 -34.042,-52.605 -67.885,-105.34 -101.776,-158.042 -0.925,-1.437 -1.738,-2.946 -3.123,-5.306 h 6.564 c 32.865,0 65.73,0.001 98.594,-0.002 7.224,0 9.133,-1.92 8.885,-9.112 -0.054,-1.578 -0.388,-3.177 -0.819,-4.704 -0.638,-2.254 -2.094,-3.66 -4.607,-3.648 -1.244,0.006 -2.487,-0.023 -3.73,-0.023 -38.372,-0.002 -76.744,-0.001 -115.116,-0.001 -1.067,0 -2.135,-0.037 -3.198,0.019 -4.801,0.25 -7.027,2.363 -7.613,7.155 -0.903,7.383 1.107,13.862 5.169,20.113 19.44,29.917 38.673,59.97 57.974,89.976 14.5,22.543 28.995,45.089 43.482,67.64 C -2.082,-3.617 -1.334,-2.256 0,0" /></g><g
           transform="translate(428.0806,532.2051)"
           id="g40"><path
             id="path42"
             style="fill:#0c0654;fill-opacity:1;fill-rule:nonzero;stroke:none"
             d="m 0,0 h -5.687 c -17.76,0 -35.521,-0.007 -53.282,0.005 -5.977,0.004 -7.573,1.459 -7.851,7.346 -0.083,1.75 0.052,3.566 0.441,5.272 0.872,3.83 1.958,4.634 5.844,4.807 1.064,0.047 2.132,0.01 3.197,0.01 44.757,0 89.515,10e-4 134.272,-0.004 1.597,0 3.221,0.118 4.786,-0.123 3.367,-0.518 4.927,-3.762 4.735,-9.475 C 86.277,2.59 84.785,0.351 81.153,0.026 79.919,-0.084 78.668,0 77.425,0 59.486,0 41.548,0 23.609,0 h -3.911 c -0.051,-2.208 -0.139,-4.25 -0.14,-6.292 -0.007,-58.433 -0.006,-116.866 -0.006,-175.299 0,-8.217 -0.843,-9.079 -8.986,-9.199 -0.71,-0.011 -1.42,-0.016 -2.13,0.003 -7.507,0.2 -8.435,1.153 -8.435,8.693 C 0,-123.483 0,-64.872 0,-6.261 Z" /></g><g
           transform="translate(875.0225,445.5474)"
           id="g44"><path
             id="path46"
             style="fill:#120e59;fill-opacity:1;fill-rule:nonzero;stroke:none"
             d="m 0,0 c 0,-31.631 0,-63.262 -0.001,-94.894 0,-1.421 -0.023,-2.843 -0.017,-4.264 0.013,-2.267 -1.058,-4.024 -3.27,-4.162 -4.373,-0.272 -8.781,-0.276 -13.158,-0.059 -2.192,0.108 -3.401,1.744 -3.435,4.034 -0.019,1.244 -0.02,2.488 -0.02,3.731 -0.001,63.974 -0.002,127.947 0,191.921 0,7.441 1.012,8.47 8.568,8.744 0.532,0.019 1.065,0.028 1.599,0.026 8.775,-0.024 9.733,-0.973 9.734,-9.65 z" /></g><g
           transform="translate(550.7417,446.1665)"
           id="g48"><path
             id="path50"
             style="fill:#120e59;fill-opacity:1;fill-rule:nonzero;stroke:none"
             d="m 0,0 v -95.953 c 0,-1.066 -0.054,-2.134 0.008,-3.197 0.159,-2.734 -1.079,-4.738 -3.738,-4.927 -4.199,-0.297 -8.451,-0.253 -12.65,0.052 -2.399,0.175 -3.642,1.988 -3.57,4.511 0.036,1.243 10e-4,2.487 10e-4,3.731 -10e-4,63.791 -10e-4,127.582 0,191.372 0,7.48 1.025,8.538 8.502,8.83 0.355,0.014 0.71,0.026 1.066,0.031 C -1.026,104.567 0,103.57 0,94.354 Z" /></g><g
           transform="translate(1248.4395,328.3906)"
           id="g52"><path
             id="path54"
             style="fill:#120e59;fill-opacity:1;fill-rule:nonzero;stroke:none"
             d="m 0,0 c 0,-4.665 0,-9.082 0.001,-13.499 0.001,-7.995 -0.03,-15.99 0.016,-23.985 0.032,-5.49 0.587,-6.009 6.204,-6.06 4.441,-0.04 8.894,0.178 13.32,-0.088 2.412,-0.145 4.915,-0.744 7.13,-1.707 2.76,-1.2 4.382,-3.569 4.423,-6.742 0.044,-3.382 -1.582,-6.006 -4.575,-7.184 -2.567,-1.009 -5.473,-1.55 -8.239,-1.589 -12.079,-0.167 -24.162,-0.042 -36.242,-0.117 -1.917,-0.012 -3.896,-0.303 -5.716,-0.879 -0.782,-0.247 -1.697,-1.551 -1.697,-2.375 0,-0.827 0.912,-2.134 1.693,-2.382 1.821,-0.578 3.801,-0.868 5.72,-0.881 10.837,-0.079 21.676,0.04 32.511,-0.107 2.602,-0.035 5.325,-0.462 7.761,-1.348 3.236,-1.178 5.16,-3.828 5.121,-7.392 -0.04,-3.599 -2.243,-5.993 -5.364,-7.286 -1.914,-0.793 -4.121,-1.194 -6.202,-1.216 -11.369,-0.113 -22.74,-0.058 -34.11,-0.052 -2.14,10e-4 -4.86,-0.226 -4.893,2.685 -0.034,3.061 2.785,2.592 4.856,2.597 10.837,0.025 21.676,-0.046 32.511,0.065 2.068,0.021 4.286,0.359 6.15,1.189 2.132,0.951 2.019,3.621 -0.176,4.494 -1.743,0.693 -3.788,0.847 -5.701,0.86 -10.838,0.075 -21.676,-0.027 -32.512,0.082 -2.451,0.024 -5.035,0.268 -7.309,1.093 -3.351,1.216 -5.702,3.678 -5.716,7.564 -0.016,3.886 2.307,6.407 5.656,7.605 2.44,0.873 5.207,1.107 7.832,1.133 11.902,0.115 23.807,0.042 35.71,0.072 1.592,0.004 3.312,-0.127 4.732,0.424 1.1,0.426 2.271,1.708 2.553,2.825 0.167,0.664 -1.159,2.147 -2.114,2.548 -1.411,0.592 -3.085,0.716 -4.653,0.747 -4.618,0.09 -9.24,-0.021 -13.858,0.051 -6.859,0.107 -10.03,3.246 -10.087,10.201 -0.089,11.014 -0.026,22.03 -0.027,33.046 V 0.178 C -17.517,2.413 -27.328,8.054 -32.818,19.602 -35.64,25.535 -37.277,35 -34.395,42.311 -20.25,42.346 -9.929,35.878 -2.696,22.893 4.741,35.194 14.746,42.588 29.593,42.023 32.265,31.723 30.408,22.479 24.482,14.038 18.632,5.705 10.124,1.686 0,0" /></g><g
           transform="translate(713.9512,264.3574)"
           id="g56"><path
             id="path58"
             style="fill:#120e59;fill-opacity:1;fill-rule:nonzero;stroke:none"
             d="m 0,0 v 29.054 c 0,2.485 -0.138,4.981 0.043,7.454 0.147,2.023 0.205,5.46 1.118,5.756 2.729,0.884 5.862,0.671 8.824,0.554 0.617,-0.024 1.374,-1.399 1.703,-2.287 0.291,-0.782 0.083,-1.753 0.083,-2.64 0,-17.401 0.017,-34.802 -0.009,-52.203 -0.01,-5.792 -1.014,-6.288 -6.866,-6.868 -6.703,-0.663 -10.468,2.148 -13.339,7.975 -5.877,11.925 -12.256,23.602 -18.445,35.373 -0.376,0.715 -0.894,1.354 -1.99,2.991 -0.252,-2.496 -0.499,-3.79 -0.494,-5.082 0.041,-11.893 0.151,-23.785 0.173,-35.679 0.004,-1.851 0.743,-4.634 -1.651,-5.05 -3.01,-0.523 -6.248,-0.081 -9.314,0.405 -0.528,0.084 -0.963,2.459 -0.981,3.782 -0.094,7.278 -0.045,14.559 -0.045,21.839 0,10.298 -0.036,20.597 0.014,30.895 0.029,5.75 1.063,6.696 6.905,6.756 10.583,0.109 10.599,0.118 15.571,-9.249 C -12.718,22.508 -6.768,11.223 -0.803,-0.055 -0.535,-0.037 -0.268,-0.019 0,0" /></g><g
           transform="translate(1246.9297,430.4932)"
           id="g60"><path
             id="path62"
             style="fill:#120e59;fill-opacity:1;fill-rule:nonzero;stroke:none"
             d="m 0,0 c -33.928,0.138 -59.437,-27.31 -57.494,-59.984 0.549,-9.226 2.753,-18.086 7.988,-25.65 10.691,-15.443 16.305,-32.595 18.781,-50.983 0.142,-1.056 0.284,-2.115 0.508,-3.155 1.025,-4.75 2.001,-5.582 6.774,-5.702 2.486,-0.061 4.975,-0.014 7.463,-0.048 1.064,-0.016 2.292,0.198 3.147,-0.256 0.948,-0.502 1.938,-1.561 2.165,-2.547 0.131,-0.572 -1.177,-2.108 -1.886,-2.14 -5.633,-0.259 -11.392,-1.313 -16.83,0.881 -3.103,1.253 -5.02,3.816 -5.628,7.262 -0.863,4.893 -1.991,9.746 -2.719,14.658 -2.022,13.627 -7.646,25.695 -14.922,37.277 -12.988,20.674 -14.262,42.417 -2.289,63.696 C -41.61,-2.995 -20.347,7.775 6.604,4.552 32.215,1.488 49.507,-13.37 57.787,-37.76 c 6.32,-18.619 3.429,-36.514 -7.266,-52.975 -6.158,-9.48 -11,-19.483 -13.524,-30.507 -1.147,-5.012 -1.783,-10.141 -2.71,-15.205 -0.373,-2.038 -0.444,-4.882 -3.383,-4.412 -3.013,0.481 -2.012,3.198 -1.771,5.252 2.038,17.385 7.68,33.345 17.26,48.165 22.13,34.241 2.978,78.618 -37.069,86.533 C 6.033,-0.258 2.617,-0.242 0,0" /></g><g
           transform="translate(252.7393,275.4961)"
           id="g64"><path
             id="path66"
             style="fill:#120e59;fill-opacity:1;fill-rule:nonzero;stroke:none"
             d="m 0,0 c -0.542,3.806 -0.822,7.526 -1.65,11.121 -0.994,4.309 -3.452,7.778 -7.577,9.713 -9.647,4.524 -20.431,-0.543 -23.026,-10.871 -1.758,-6.993 -1.622,-14.064 0.1,-21.039 0.999,-4.049 3.009,-7.517 6.942,-9.579 9.381,-4.917 20.607,-0.4 23.466,9.734 C -0.748,-7.387 -0.555,-3.626 0,0 M 14.067,0.956 C 13.221,-4.022 12.824,-8.648 11.612,-13.051 8.329,-24.979 0.072,-31.582 -12,-32.92 c -5.024,-0.558 -10.305,-0.088 -15.314,0.793 -8.978,1.581 -14.955,7.203 -17.671,15.84 -2.991,9.508 -3.213,19.198 -0.481,28.859 3.161,11.179 10.57,17.836 21.913,19.91 6.341,1.16 12.761,0.946 18.99,-0.894 C 3.317,29.26 8.787,24.103 11.132,16.275 12.641,11.237 13.155,5.9 14.067,0.956" /></g><g
           transform="translate(442.7212,275.3027)"
           id="g68"><path
             id="path70"
             style="fill:#120e59;fill-opacity:1;fill-rule:nonzero;stroke:none"
             d="m 0,0 c 0.563,-3.935 0.836,-7.657 1.677,-11.247 1.055,-4.501 3.598,-8.063 8.099,-9.842 10.405,-4.111 20.386,1.294 22.701,12.258 1.299,6.151 1.269,12.295 0.014,18.449 C 30.87,17.566 26.04,21.983 18.449,22.405 10.229,22.862 4.009,18.913 1.837,11.31 0.781,7.613 0.57,3.677 0,0 m -14.171,-0.511 c 0.609,6.041 1.43,11.79 3.79,17.271 3.464,8.045 9.474,13.139 17.905,15.316 6.465,1.669 12.98,1.575 19.507,0.181 9.391,-2.006 15.424,-7.713 18.17,-16.77 2.736,-9.019 2.83,-18.184 0.452,-27.321 -3.032,-11.651 -10.502,-18.667 -22.363,-20.726 -6.357,-1.103 -12.751,-0.858 -18.976,1.022 -7.675,2.317 -13.072,7.304 -15.366,14.939 -1.563,5.205 -2.115,10.715 -3.119,16.088" /></g><g
           transform="translate(892.2822,291.9141)"
           id="g72"><path
             id="path74"
             style="fill:#120e59;fill-opacity:1;fill-rule:nonzero;stroke:none"
             d="m 0,0 c -1.806,0.812 -3.224,1.416 -4.611,2.08 -4.861,2.327 -9.898,3.854 -15.364,3.757 -9.541,-0.168 -16.624,-5.506 -19.102,-14.762 -1.401,-5.232 -1.381,-10.576 0.115,-15.798 3.437,-11.998 15.078,-17.171 26.993,-11.71 v 7.195 7.279 h -13.502 v 9.41 c 1.532,0.197 2.72,0.476 3.91,0.484 6.042,0.039 12.085,0.099 18.124,-0.035 3.291,-0.072 4.367,-0.987 4.414,-4.031 0.135,-8.705 0.052,-17.413 0.037,-26.12 -0.005,-2.287 -1.355,-3.528 -3.397,-4.219 -10.331,-3.495 -20.765,-4.615 -31.361,-1.268 -9.58,3.026 -15.649,9.595 -18.358,19.116 -2.23,7.844 -2.202,15.845 0.248,23.657 3.916,12.485 12.821,19.306 25.498,21.185 6.532,0.968 13.105,0.566 19.493,-1.501 C 1.347,12.063 2.688,9.49 0,0" /></g><g
           transform="translate(800.4287,279.2783)"
           id="g76"><path
             id="path78"
             style="fill:#120e59;fill-opacity:1;fill-rule:nonzero;stroke:none"
             d="m 0,0 c 3.896,0.272 7.479,0.1 10.849,0.863 4.422,1.001 6.557,4.647 6.217,9.236 -0.31,4.179 -2.46,6.742 -6.897,7.462 C 6.927,18.086 3.595,18.055 0,18.291 Z m 19.409,-5.957 c 8.704,-8.295 10.698,-19.051 15.319,-28.858 -4.769,-2.004 -8.679,-1.545 -12.45,-0.977 -1.142,0.173 -2.36,1.972 -2.953,3.292 -2.245,5.005 -4.097,10.187 -6.378,15.175 -3.056,6.689 -4.986,7.695 -13.225,7.217 0,-2.684 0.001,-5.434 0,-8.184 0,-4.435 0.063,-8.87 -0.02,-13.303 -0.07,-3.73 -0.543,-4.14 -4.307,-4.493 -8.507,-0.796 -9.089,-0.271 -9.089,8.197 0,15.964 -0.002,31.928 0.003,47.892 0,1.418 -0.065,2.848 0.087,4.252 0.266,2.434 1.542,3.873 4.171,3.85 7.626,-0.066 15.29,0.364 22.87,-0.252 C 26.726,26.77 33.712,16.476 29.884,4.452 28.264,-0.64 24.532,-3.722 19.409,-5.957" /></g><g
           transform="translate(1113.5293,268.2051)"
           id="g80"><path
             id="path82"
             style="fill:#120e59;fill-opacity:1;fill-rule:nonzero;stroke:none"
             d="M 0,0 C -2.964,8.899 -5.699,17.113 -8.435,25.327 L -9.302,25.315 C -12.074,16.988 -14.847,8.661 -17.729,0 Z m 21.742,-24.177 c -1.591,-0.476 -2.084,-0.714 -2.596,-0.763 -10.792,-1.068 -10.792,-1.064 -14.215,9.172 -0.557,1.665 -1.123,3.328 -1.762,5.217 h -23.808 c -1.091,-3.188 -2.225,-6.504 -3.361,-9.818 -1.548,-4.519 -1.548,-4.578 -6.365,-4.693 -2.245,-0.053 -4.497,0.171 -7.211,0.291 0.175,1.705 0.078,2.922 0.441,3.982 6.493,18.933 13.057,37.841 19.561,56.769 0.799,2.329 2.241,3.229 4.698,3.453 12.367,1.129 12.43,1.134 16.542,-10.716 5.398,-15.56 10.828,-31.109 16.218,-46.671 0.669,-1.93 1.175,-3.916 1.858,-6.223" /></g><g
           transform="translate(315.3979,306.6689)"
           id="g84"><path
             id="path86"
             style="fill:#120e59;fill-opacity:1;fill-rule:nonzero;stroke:none"
             d="m 0,0 c 4.558,1.335 8.488,1.47 12.967,-0.133 v -5.208 c 0,-10.305 -0.031,-20.61 0.025,-30.915 0.012,-2.297 0.149,-4.625 0.546,-6.883 1.159,-6.581 5.484,-10.259 12.102,-10.511 6.847,-0.261 11.716,3.327 13.173,9.928 0.416,1.882 0.42,3.878 0.427,5.824 0.037,10.836 0.008,21.674 0.028,32.513 0.003,1.736 0.144,3.472 0.214,5.057 4.958,1.778 7.076,1.805 12.384,0.185 0.1,-1.259 0.301,-2.638 0.304,-4.017 0.025,-11.904 0.064,-23.809 10e-4,-35.712 -0.078,-14.855 -8.799,-23.941 -23.654,-24.469 -3.689,-0.132 -7.487,0.087 -11.094,0.831 C 7.031,-61.367 0.581,-54.667 0.148,-44.049 -0.444,-29.532 0,-14.974 0,0" /></g><g
           transform="translate(423.9082,258.208)"
           id="g88"><path
             id="path90"
             style="fill:#120e59;fill-opacity:1;fill-rule:nonzero;stroke:none"
             d="m 0,0 c 2.4,-8.229 0.922,-11.327 -6.674,-14.091 -1.966,-0.715 -4.003,-1.236 -6.258,-1.924 0.746,-2.06 1.539,-3.815 2.017,-5.652 1.348,-5.167 -0.942,-9.111 -6.085,-10.679 -4.08,-1.243 -8.122,-0.661 -12.045,0.592 -2.443,0.78 -2.631,2.09 -1.457,7.391 2.108,0 4.37,-0.083 6.623,0.023 2.313,0.11 3.218,1.53 2.455,3.623 -0.875,2.401 -1.306,5.061 -4.695,5.764 -10.793,2.24 -16.671,9.541 -19.201,19.796 -1.989,8.061 -1.91,16.183 0.398,24.216 4.912,17.099 21.358,25.488 38.155,19.479 7.602,-2.719 9.205,-6.428 6.07,-14.818 -1.069,0.421 -2.159,0.783 -3.188,1.276 -0.794,0.38 -1.492,0.953 -2.262,1.388 -11.455,6.45 -22.364,1.772 -25.331,-11.022 -1.295,-5.588 -1.282,-11.329 -0.002,-16.918 2.721,-11.875 13.417,-16.521 24.905,-11 1.892,0.91 3.777,1.837 5.675,2.736 C -0.776,0.238 -0.568,0.12 0,0" /></g><g
           transform="translate(942.6592,307.3623)"
           id="g92"><path
             id="path94"
             style="fill:#120e59;fill-opacity:1;fill-rule:nonzero;stroke:none"
             d="m 0,0 c 0.266,-1.853 0.635,-3.371 0.674,-4.897 0.123,-4.808 -0.503,-5.408 -5.476,-5.452 -5.861,-0.051 -11.722,-0.047 -17.583,-0.09 -0.319,-0.003 -0.636,-0.212 -1.528,-0.53 v -7.086 -7.4 h 19.967 c 0.497,-1.676 1.107,-2.947 1.222,-4.262 0.452,-5.173 -0.541,-6.196 -5.803,-6.226 -4.939,-0.029 -9.879,-0.006 -15.386,-0.006 v -8.76 -8.889 c 6.284,0 12.098,0.004 17.91,-10e-4 7.005,-0.005 7.513,-0.574 6.763,-7.702 -0.073,-0.678 -0.373,-1.331 -0.563,-1.976 -0.6,-0.256 -1.074,-0.633 -1.55,-0.636 -10.301,-0.055 -20.604,-0.129 -30.906,-0.061 -3.919,0.027 -4.687,0.796 -4.702,4.763 -0.064,18.12 -0.057,36.24 -0.005,54.36 0.011,3.624 0.757,4.762 3.541,4.796 C -22.437,0.078 -11.445,0 0,0" /></g><g
           transform="translate(637.5967,271.4121)"
           id="g96"><path
             id="path98"
             style="fill:#120e59;fill-opacity:1;fill-rule:nonzero;stroke:none"
             d="m 0,0 v -17.39 c 7.894,-0.656 15.817,0.102 23.607,-0.443 1.975,-3.479 1.825,-6.635 0.073,-10.223 -8.807,0 -17.674,0.028 -26.539,-0.006 -10.391,-0.042 -10.354,-0.806 -10.297,10.022 0.082,15.641 0.013,31.281 0.025,46.922 0.005,6.898 0.203,7.081 7.309,7.087 9.756,0.007 19.511,0.002 29.545,0.002 0.355,-1.631 0.819,-2.95 0.902,-4.294 C 24.964,26.25 24.327,25.618 18.756,25.6 12.572,25.579 6.388,25.595 0.052,25.595 V 10.298 c 5.282,0 10.419,0.049 15.554,-0.027 1.847,-0.027 4.478,0.843 5.101,-1.572 C 21.301,6.396 20.995,3.771 20.598,1.367 20.497,0.756 18.559,0.112 17.441,0.066 13.537,-0.094 9.623,0.002 5.713,0.001 3.965,0 2.217,0 0,0" /></g><g
           transform="translate(512.8706,271.0859)"
           id="g100"><path
             id="path102"
             style="fill:#120e59;fill-opacity:1;fill-rule:nonzero;stroke:none"
             d="m 0,0 v -17.321 c 5.918,0 11.745,0.002 17.572,0 7.341,-0.004 8.636,-1.705 6.77,-8.915 -0.086,-0.331 -0.341,-0.618 -0.842,-1.493 H 12.761 c -6.926,0 -13.853,-0.06 -20.779,0.022 -4.173,0.05 -5.12,0.91 -5.134,4.958 -0.062,18.115 -0.058,36.231 0.004,54.347 0.011,3.412 0.916,4.595 3.779,4.628 10.982,0.123 21.966,0.049 32.96,0.049 0.348,-1.07 0.673,-1.711 0.757,-2.381 0.917,-7.26 0.287,-7.969 -6.969,-7.972 C 11.725,25.919 6.07,25.921 0.13,25.921 V 10.624 c 4.993,0 10.06,0.013 15.128,-0.004 5.393,-0.017 7.339,-2.896 5.639,-8.187 C 20.26,0.45 18.71,0.345 17.078,0.337 12.815,0.317 8.553,0.353 4.291,0.312 2.905,0.298 1.521,0.115 0,0" /></g><g
           transform="translate(775.4844,307.3701)"
           id="g104"><path
             id="path106"
             style="fill:#120e59;fill-opacity:1;fill-rule:nonzero;stroke:none"
             d="m 0,0 c 0.32,-1.594 0.639,-2.616 0.714,-3.656 0.447,-6.155 -0.064,-6.693 -6.238,-6.704 -6.001,-0.012 -12.003,-0.003 -18.179,-0.003 v -15.298 c 5.374,0 10.674,0.041 15.972,-0.024 1.672,-0.02 4.074,0.719 4.543,-1.575 0.476,-2.334 0.32,-4.913 -0.167,-7.259 -0.146,-0.698 -2.326,-1.31 -3.602,-1.373 -3.719,-0.181 -7.452,-0.065 -11.181,-0.066 h -5.491 v -17.551 c 3.912,-0.031 7.899,-0.076 11.884,-0.093 3.873,-0.016 7.745,-0.003 11.428,-0.003 1.998,-3.533 1.823,-6.575 0.499,-9.969 -1.139,-0.143 -2.317,-0.414 -3.496,-0.419 -9.231,-0.036 -18.462,-0.05 -27.694,-0.009 -5.194,0.023 -5.959,0.702 -5.974,5.774 -0.054,17.575 -0.051,35.15 0,52.724 0.012,4.312 0.758,5.418 4.063,5.457 C -22.109,0.08 -11.298,0 0,0" /></g><g
           transform="translate(195.4165,293.4111)"
           id="g108"><path
             id="path110"
             style="fill:#120e59;fill-opacity:1;fill-rule:nonzero;stroke:none"
             d="m 0,0 c -2.543,1.189 -4.229,2.018 -5.946,2.774 -3.628,1.601 -7.36,2.522 -11.371,1.759 -2.889,-0.55 -4.886,-2.088 -5.588,-4.981 -0.656,-2.698 0.332,-4.989 2.483,-6.569 1.84,-1.352 3.9,-2.432 5.942,-3.476 3.152,-1.612 6.475,-2.912 9.543,-4.665 6.397,-3.654 9.738,-9.238 9.354,-16.681 -0.388,-7.494 -3.824,-13.262 -10.702,-16.539 -8.499,-4.05 -17.222,-3.725 -25.837,-0.405 -5.869,2.262 -7.187,7.387 -3.545,13.56 1.665,-0.851 3.353,-1.724 5.049,-2.58 4.214,-2.123 8.654,-3.147 13.378,-2.604 4.186,0.481 7.039,2.781 7.791,6.169 0.72,3.251 -0.614,6.011 -4.421,8.277 -2.423,1.441 -5.107,2.44 -7.623,3.736 -2.517,1.298 -5.115,2.512 -7.424,4.125 -6.341,4.434 -8.401,10.704 -7.214,18.18 1.153,7.268 5.601,11.68 12.404,13.812 6.284,1.969 12.622,1.704 18.843,-0.369 C -0.007,11.899 0.618,10.946 0.544,5.81 0.521,4.149 0.243,2.492 0,0" /></g><g
           transform="translate(1175.6113,293.4707)"
           id="g112"><path
             id="path114"
             style="fill:#120e59;fill-opacity:1;fill-rule:nonzero;stroke:none"
             d="m 0,0 c -2.431,1.101 -4.123,1.862 -5.812,2.634 -3.613,1.65 -7.332,2.558 -11.348,1.872 -2.904,-0.496 -4.917,-1.997 -5.728,-4.844 -0.841,-2.951 0.423,-5.294 2.718,-6.955 1.848,-1.337 3.957,-2.327 5.997,-3.378 3.304,-1.703 6.759,-3.139 9.952,-5.022 12.813,-7.556 10.637,-26.074 -0.959,-32.158 -9.443,-4.954 -19.151,-4.613 -28.668,-0.127 -4.23,1.996 -4.918,6.767 -2.001,12.75 1.668,-0.835 3.357,-1.661 5.028,-2.521 4.025,-2.07 8.271,-3.247 12.809,-2.732 1.722,0.195 3.549,0.621 5.04,1.454 4.272,2.386 4.963,7.923 1.321,11.22 -1.801,1.63 -4.087,2.772 -6.263,3.928 -3.124,1.661 -6.457,2.946 -9.508,4.724 -6.403,3.73 -9.367,9.39 -8.974,16.852 0.401,7.628 4.641,13.572 11.934,15.942 6.603,2.145 13.278,2.035 19.844,-0.307 C 0.039,11.672 0.587,10.867 0.539,5.961 0.522,4.263 0.242,2.567 0,0" /></g><g
           transform="translate(545.1299,258.167)"
           id="g116"><path
             id="path118"
             style="fill:#120e59;fill-opacity:1;fill-rule:nonzero;stroke:none"
             d="m 0,0 c 1.515,-0.77 3.073,-1.536 4.608,-2.347 4.177,-2.205 8.594,-3.281 13.328,-2.86 4.235,0.376 7.273,2.574 8.059,5.794 0.903,3.701 -0.302,6.36 -4.349,8.78 -2.27,1.358 -4.786,2.297 -7.138,3.527 -2.82,1.474 -5.775,2.792 -8.332,4.644 -6.313,4.573 -7.984,11.128 -6.645,18.432 1.228,6.69 5.564,10.971 11.945,13.053 6.071,1.983 12.239,1.87 18.338,0.042 6.78,-2.03 8.366,-6.169 4.908,-13.356 -1.565,0.709 -3.083,1.63 -4.73,2.091 -3.208,0.896 -6.464,1.985 -9.745,2.164 -4.054,0.222 -6.477,-1.743 -7.395,-4.815 -0.916,-3.062 0.232,-5.747 3.74,-7.985 1.929,-1.231 4.08,-2.118 6.136,-3.15 2.846,-1.428 5.768,-2.724 8.535,-4.291 C 43.779,12.633 42.485,-6.06 30.602,-12.458 21.031,-17.611 11.126,-17.197 1.472,-12.511 -2.622,-10.522 -3.2,-4.784 0,0" /></g><g
           transform="translate(1072.2217,258.835)"
           id="g120"><path
             id="path122"
             style="fill:#120e59;fill-opacity:1;fill-rule:nonzero;stroke:none"
             d="m 0,0 c 2.773,-8.785 1.328,-11.885 -6.271,-14.605 -7.271,-2.604 -14.623,-2.678 -21.954,-0.374 -8.051,2.53 -13.315,8.066 -15.837,15.992 -3.271,10.287 -3.27,20.698 0.578,30.825 5.978,15.735 24.858,22.668 39.838,14.875 5.145,-2.676 6.3,-7.684 2.863,-13.815 -1.341,0.742 -2.637,1.595 -4.039,2.205 -2.581,1.121 -5.143,2.487 -7.858,3.062 -7.306,1.549 -13.666,-1.496 -16.656,-8.295 -3.81,-8.662 -3.935,-17.673 -0.286,-26.405 3.361,-8.041 12.059,-10.931 21.228,-7.429 C -5.634,-2.91 -3.03,-1.446 0,0" /></g><g
           transform="translate(995.7285,307.1406)"
           id="g124"><path
             id="path126"
             style="fill:#120e59;fill-opacity:1;fill-rule:nonzero;stroke:none"
             d="m 0,0 c 0.328,-1.348 0.774,-2.508 0.874,-3.696 0.499,-5.917 -0.297,-6.752 -6.22,-6.765 -3.703,-0.009 -7.407,-0.002 -11.672,-0.002 V -62.56 c -4.846,-1.858 -7.125,-1.918 -13.005,-0.343 -0.366,5.561 -0.108,11.37 -0.156,17.161 -0.047,5.686 -0.009,11.373 -0.009,17.059 v 18.22 c -4.149,0 -7.988,-0.008 -11.827,0.002 -5.887,0.015 -6.404,0.52 -6.095,6.315 0.072,1.356 0.467,2.694 0.734,4.146 z" /></g><g
           transform="translate(289.3325,254.0723)"
           id="g128"><path
             id="path130"
             style="fill:#120e59;fill-opacity:1;fill-rule:nonzero;stroke:none"
             d="m 0,0 h 20.63 c 1.618,-4.472 1.637,-5.227 0.297,-10.247 -0.897,-0.144 -1.906,-0.441 -2.916,-0.445 -8.513,-0.038 -17.027,-0.057 -25.54,-0.01 -5.005,0.027 -5.859,0.855 -5.871,5.908 -0.041,17.736 -0.034,35.473 -0.004,53.209 0.008,4.639 0.2,4.776 4.711,5.129 0.706,0.056 1.416,0.106 2.124,0.103 6.189,-0.026 6.562,-0.393 6.566,-6.628 C 0.006,33.361 0,19.705 0,6.048 Z" /></g><g
           transform="translate(89.5122,483.0801)"
           id="g132"><path
             id="path134"
             style="fill:#120e59;fill-opacity:1;fill-rule:nonzero;stroke:none"
             d="m 0,0 c 5.15,0 10.301,0.062 15.45,-0.029 2.298,-0.041 4.639,-0.168 6.876,-0.649 4.807,-1.034 7.63,-4.958 7.265,-9.694 -0.356,-4.62 -3.906,-8.224 -8.699,-8.501 -2.829,-0.164 -5.684,0.051 -8.523,0.159 -9.054,0.342 -18.107,0.71 -27.159,1.081 -1.419,0.058 -2.844,0.118 -4.252,0.295 -5.861,0.738 -9.376,4.503 -9.156,9.744 0.214,5.098 4.347,8.758 10.096,8.812 6.035,0.057 12.069,0.013 18.104,0.013 C 0.001,0.821 0,0.41 0,0" /></g><g
           transform="translate(250.438,633.4604)"
           id="g136"><path
             id="path138"
             style="fill:#120e59;fill-opacity:1;fill-rule:nonzero;stroke:none"
             d="m 0,0 c 0,6.565 -0.182,13.137 0.056,19.693 0.197,5.422 3.623,8.979 8.372,9.373 6.004,0.499 10.39,-3.684 10.261,-10.137 C 18.546,11.83 18.103,4.736 17.807,-2.36 17.577,-7.861 17.4,-13.365 17.146,-18.865 c -0.165,-3.564 -1.433,-6.617 -4.631,-8.506 -6.319,-3.732 -13.697,0.584 -13.869,8.198 -0.145,6.387 -0.03,12.781 -0.03,19.172 C -0.923,-0.001 -0.461,0 0,0" /></g><g
           transform="translate(186.1216,587.3921)"
           id="g140"><path
             id="path142"
             style="fill:#120e59;fill-opacity:1;fill-rule:nonzero;stroke:none"
             d="m 0,0 c -4.486,-0.002 -7.347,2.065 -9.241,5.666 -2.645,5.03 -5.305,10.052 -7.949,15.083 -3.055,5.813 -6.121,11.621 -9.132,17.456 -0.647,1.253 -1.26,2.572 -1.587,3.933 -1.019,4.24 0.954,8.35 4.779,10.274 3.725,1.874 8.355,0.932 11.132,-2.313 0.573,-0.669 1.067,-1.429 1.48,-2.209 C -4.54,36.591 1.421,25.283 7.38,13.974 8.982,10.935 9.117,7.87 7.465,4.8 5.799,1.705 3.105,0.253 0,0" /></g><g
           transform="translate(140.3887,545.2749)"
           id="g144"><path
             id="path146"
             style="fill:#120e59;fill-opacity:1;fill-rule:nonzero;stroke:none"
             d="m 0,0 c 0.092,-6.639 -6.316,-11.113 -12.515,-8.688 -1.144,0.448 -2.207,1.132 -3.255,1.792 -10.068,6.34 -20.175,12.623 -30.146,19.114 -1.995,1.3 -3.934,3.154 -5.063,5.21 -1.813,3.303 -0.604,7.755 2.096,10.269 2.961,2.757 7.409,3.303 11.38,0.951 5.955,-3.525 11.761,-7.303 17.617,-10.994 4.958,-3.124 9.925,-6.236 14.834,-9.436 C -2.109,6.299 0.105,3.839 0,0" /></g><g
           transform="translate(93.4604,373.2451)"
           id="g148"><path
             id="path150"
             style="fill:#120e59;fill-opacity:1;fill-rule:nonzero;stroke:none"
             d="m 0,0 c -5.179,0.039 -8.36,2.253 -9.695,5.976 -1.308,3.649 -0.278,7.615 2.74,10.115 0.948,0.785 2.043,1.421 3.138,1.997 10.836,5.706 21.703,11.354 32.522,17.093 2.843,1.508 5.724,1.955 8.698,0.782 5.936,-2.34 7.712,-9.849 3.422,-14.573 C 39.779,20.238 38.389,19.308 37,18.573 26.175,12.846 15.33,7.158 4.444,1.551 2.754,0.68 0.822,0.278 0,0" /></g><g
           transform="translate(1003.2861,243.6611)"
           id="g152"><path
             id="path154"
             style="fill:#120e59;fill-opacity:1;fill-rule:nonzero;stroke:none"
             d="m 0,0 c -0.103,2.267 -0.232,3.83 -0.233,5.393 -0.015,17.556 -0.018,35.113 -0.005,52.67 0.004,5.552 0.342,5.922 6.041,5.964 2.083,0.016 4.169,-0.315 6.585,-0.516 0.207,-1.683 0.512,-3.028 0.515,-4.374 C 12.935,41.049 12.939,22.96 12.914,4.871 12.907,-0.074 12.708,-0.335 7.936,-0.466 5.371,-0.536 2.795,-0.179 0,0" /></g><g
           transform="translate(1245.7012,403.6216)"
           id="g156"><path
             id="path158"
             style="fill:#120e59;fill-opacity:1;fill-rule:nonzero;stroke:none"
             d="M 0,0 C 13.991,-8.925 14.036,-31.67 0.204,-40.854 -13.478,-33.333 -14.736,-9.218 0,0" /></g><g
           transform="translate(442.3057,312.6396)"
           id="g160"><path
             id="path162"
             style="fill:#120e59;fill-opacity:1;fill-rule:nonzero;stroke:none"
             d="m 0,0 c -1.643,10.733 7.749,15.456 16.35,11.807 1.132,-0.481 2.194,-1.133 3.269,-1.741 5.313,-3.001 6.187,-2.744 8.665,2.628 H 34.44 C 36.162,3.557 30.669,-2.17 21.901,-0.409 19.373,0.098 16.957,1.408 14.631,2.622 10.2,4.937 10.344,4.942 7.333,0.856 5.362,-1.818 2.71,-0.726 0,0" /></g><g
           transform="translate(942.3252,326.0781)"
           id="g164"><path
             id="path166"
             style="fill:#120e59;fill-opacity:1;fill-rule:nonzero;stroke:none"
             d="m 0,0 c -1.237,-1.752 -1.765,-2.828 -2.581,-3.596 -2.951,-2.775 -5.951,-5.503 -9.022,-8.143 -3.472,-2.988 -6.65,-3.325 -12.29,-1.215 3.545,4.732 6.931,9.526 11.576,12.784 C -9.195,2.02 -4.911,1.061 0,0" /></g><g
           transform="translate(333.1562,464.1094)"
           id="g168"><path
             id="path170"
             style="fill:#f6ad12;fill-opacity:1;fill-rule:nonzero;stroke:none"
             d="m 0,0 c -0.495,-16.977 -2.1,-33.735 -7.311,-49.957 -4.705,-14.645 -12.2,-27.578 -24.207,-37.535 -9.785,-8.114 -20.928,-13.237 -33.562,-15.075 -12.771,-1.859 -25.492,-1.818 -38.127,0.946 -21.418,4.685 -36.537,17.257 -46.041,36.883 -6.049,12.494 -8.77,25.858 -10.273,39.483 -2.213,20.056 -1.977,40.077 1.887,59.97 2.32,11.945 6.061,23.36 12.535,33.741 12.843,20.589 31.542,31.71 55.594,33.761 11.195,0.954 22.413,0.588 33.35,-2.3 19.05,-5.029 33.206,-16.34 42.501,-33.744 C -7.028,53.765 -3.711,40.367 -2.082,26.545 -1.043,17.737 -0.671,8.851 0,0" /></g><g
           transform="translate(252.7393,275.4961)"
           id="g172"><path
             id="path174"
             style="fill:#f6ad12;fill-opacity:1;fill-rule:nonzero;stroke:none"
             d="m 0,0 c -0.555,-3.626 -0.748,-7.387 -1.745,-10.921 -2.859,-10.134 -14.085,-14.651 -23.466,-9.734 -3.933,2.062 -5.943,5.53 -6.942,9.579 -1.722,6.975 -1.858,14.046 -0.1,21.039 2.595,10.328 13.379,15.395 23.026,10.871 4.125,-1.935 6.583,-5.404 7.577,-9.713 C -0.822,7.526 -0.542,3.806 0,0" /></g><g
           transform="translate(442.7212,275.3027)"
           id="g176"><path
             id="path178"
             style="fill:#f6ad12;fill-opacity:1;fill-rule:nonzero;stroke:none"
             d="M 0,0 C 0.57,3.677 0.781,7.613 1.837,11.31 4.009,18.913 10.229,22.862 18.449,22.405 26.04,21.983 30.87,17.566 32.491,9.618 33.746,3.464 33.776,-2.68 32.477,-8.831 30.162,-19.795 20.181,-25.2 9.776,-21.089 5.275,-19.31 2.732,-15.748 1.677,-11.247 0.836,-7.657 0.563,-3.935 0,0" /></g><g
           transform="translate(800.4287,279.2783)"
           id="g180"><path
             id="path182"
             style="fill:#f6ad12;fill-opacity:1;fill-rule:nonzero;stroke:none"
             d="m 0,0 v 18.291 c 3.595,-0.236 6.927,-0.205 10.169,-0.73 4.437,-0.72 6.587,-3.283 6.897,-7.462 C 17.406,5.51 15.271,1.864 10.849,0.863 7.479,0.1 3.896,0.272 0,0" /></g><g
           transform="translate(1113.5293,268.2051)"
           id="g184"><path
             id="path186"
             style="fill:#f6ad12;fill-opacity:1;fill-rule:nonzero;stroke:none"
             d="m 0,0 h -17.729 c 2.882,8.661 5.655,16.988 8.427,25.315 l 0.867,0.012 C -5.699,17.113 -2.964,8.899 0,0" /></g></g></g></g></svg>